<?xml version="1.0" encoding="utf-8"?>
<!-- Generator: Adobe Illustrator 27.5.0, SVG Export Plug-In . SVG Version: 6.00 Build 0)  -->
<svg version="1.1" xmlns="http://www.w3.org/2000/svg" xmlns:xlink="http://www.w3.org/1999/xlink" x="0px" y="0px"
	 viewBox="0 0 500 500" style="enable-background:new 0 0 500 500;" xml:space="preserve">
<g id="BACKGROUND">
</g>
<g id="OBJECTS">
	<g>
		<path d="M232.884,236.191c-0.003-0.006-0.007-0.012-0.011-0.018c0.004,0.009,0.009,0.017,0.015,0.025
			C232.887,236.195,232.886,236.193,232.884,236.191z"/>
		<polygon points="227.991,236.706 227.986,236.698 227.987,236.699 		"/>
		<path d="M225.508,235.581c0.009,0.015,0.017,0.031,0.026,0.046c-0.007-0.011-0.013-0.023-0.019-0.034
			C225.512,235.589,225.51,235.585,225.508,235.581z"/>
		<path d="M296.294,317.525c-0.001-0.001-0.001-0.001-0.001-0.002c0.003,0.005,0.005,0.01,0.008,0.014
			C296.298,317.533,296.296,317.529,296.294,317.525z"/>
		<polygon points="284.052,285.224 284.055,285.217 284.051,285.225 		"/>
		<path d="M360.972,185.817c-0.092-0.969-0.278-1.932-0.515-2.879c-0.485-1.932-1.357-3.767-2.353-5.484
			c-0.502-0.864-1.02-1.717-1.605-2.526c-0.579-0.803-1.219-1.555-1.888-2.281c-1.395-1.511-3.017-2.778-4.745-3.881
			c-1.524-0.971-3.114-1.835-4.699-2.695c-3.241-1.754-6.591-3.298-9.81-5.094c-1.658-0.925-3.269-1.945-4.879-2.954
			c-1.517-0.947-3.039-1.89-4.569-2.816c-1.686-1.017-3.401-1.989-5.126-2.938c-1.791-0.982-3.6-1.932-5.449-2.798
			c-1.673-0.783-3.381-1.485-5.138-2.061c-1.039-0.34-2.087-0.616-3.171-0.781c-0.995-0.153-2.002-0.173-3.008-0.186
			c-1.057-0.013-2.103,0.029-3.153,0.162c-1.009,0.13-2.011,0.309-3.002,0.544c-0.98,0.23-1.91,0.616-2.848,0.973
			c-0.932,0.357-1.862,0.71-2.78,1.099c-0.752,0.32-1.528,0.601-2.261,0.963c-0.886,0.439-1.774,0.914-2.572,1.502
			c-0.675,0.5-1.324,1.044-1.967,1.585c-0.16,0.134-0.316,0.272-0.471,0.41c-0.116-0.011-0.235-0.018-0.353-0.02
			c-0.088-0.002-0.178,0-0.266,0c-0.178,0-0.353,0-0.528-0.013c-0.257-0.031-0.513-0.051-0.77-0.075
			c-0.329-0.039-0.653-0.088-0.987-0.101c-0.331-0.015-0.667-0.026-1-0.048c-0.702-0.044-1.408-0.09-2.107-0.16
			c-0.888-0.101-1.778-0.187-2.669-0.283c-1.046-0.116-2.087-0.268-3.129-0.425c-1.055-0.16-2.113-0.303-3.17-0.452
			c-1.211-0.169-2.419-0.355-3.629-0.526c-1.09-0.156-2.182-0.303-3.269-0.469c-1.173-0.182-2.353-0.3-3.532-0.427
			c-0.504-0.057-1.011-0.118-1.515-0.184c-1.296-0.171-2.587-0.324-3.894-0.401c-1.177-0.068-2.355-0.149-3.534-0.176
			c-1.211-0.024-2.421-0.013-3.631-0.029c-1.327-0.018-2.651-0.015-3.977,0.033c-1.223,0.044-2.447,0.11-3.668,0.195
			c-0.98,0.068-1.956,0.169-2.932,0.274c-0.147-0.151-0.301-0.296-0.454-0.438c-0.592-0.544-1.193-1.072-1.756-1.647
			c-0.984-1.05-1.864-2.186-2.76-3.311c-1.123-1.412-2.272-2.811-3.572-4.065c-1.245-1.204-2.611-2.285-4.076-3.21
			c-1.581-1-3.285-1.837-5.054-2.452c-2.004-0.693-4.07-1.127-6.175-1.359c-1.682-0.184-3.377-0.232-5.065-0.292
			c-1.84-0.064-3.679-0.103-5.519-0.162c-1.872-0.061-3.745-0.14-5.618-0.239c-1.866-0.096-3.732-0.116-5.6-0.131
			c-0.564-0.005-1.127-0.007-1.691,0.011c-1.982,0.057-3.956,0.287-5.868,0.827c-0.421,0.121-0.842,0.254-1.254,0.408
			c-0.491,0.184-0.993,0.366-1.469,0.596c-0.895,0.432-1.765,0.947-2.57,1.535c-0.897,0.656-1.728,1.37-2.517,2.155
			c-0.724,0.719-1.384,1.487-2.015,2.287c-1.234,1.563-2.278,3.252-3.208,5.01c-0.41,0.779-0.798,1.57-1.16,2.373
			c-0.412,0.916-0.816,1.84-1.167,2.78c-0.37,0.991-0.691,2-0.947,3.028c-0.228,0.912-0.46,1.826-0.673,2.743
			c-0.215,0.932-0.408,1.868-0.645,2.793c-0.241,0.93-0.478,1.859-0.708,2.791c-0.241,0.969-0.504,1.929-0.754,2.896
			c-0.241,0.932-0.476,1.866-0.73,2.793c-0.384,1.359-0.818,2.706-1.303,4.034c-0.66,1.802-1.313,3.609-1.96,5.418
			c-0.592,1.658-1.208,3.307-1.846,4.949c-0.695,1.789-1.414,3.57-2.166,5.337c-0.353,0.833-0.724,1.662-1.026,2.515
			c-0.351,0.987-0.618,2.006-0.805,3.039c-0.329,1.809-0.406,3.721,0.017,5.521c0.002,0.007,0.002,0.011,0.005,0.018
			c0.02,0.11,0.046,0.215,0.081,0.32c0.232,0.884,0.537,1.765,0.956,2.579c0.417,0.809,0.886,1.59,1.419,2.329
			c0.559,0.772,1.143,1.522,1.767,2.243c0.583,0.673,1.199,1.318,1.811,1.967c1.182,1.257,2.337,2.531,3.372,3.912
			c0.568,0.789,1.085,1.61,1.563,2.456c0.509,0.941,0.96,1.906,1.362,2.899c0.441,1.147,0.805,2.318,1.204,3.48
			c0.285,0.822,0.59,1.642,0.941,2.441c0.423,0.962,0.936,1.903,1.616,2.71c0.684,0.811,1.528,1.419,2.508,1.818
			c0.329,0.134,0.682,0.226,1.037,0.278c-0.167,0.822-0.309,1.649-0.421,2.478c-0.088,0.66-0.173,1.318-0.208,1.982
			c-0.033,0.605-0.031,1.208-0.015,1.816c0.031,1.364,0.14,2.723,0.331,4.076c0.167,1.199,0.357,2.401,0.616,3.585
			c0.267,1.234,0.603,2.456,1.006,3.655c0.393,1.169,0.866,2.305,1.384,3.425c0.495,1.07,1.039,2.118,1.662,3.12
			c0.662,1.066,1.344,2.127,2.103,3.127c0.732,0.965,1.502,1.91,2.324,2.8c0.748,0.811,1.531,1.594,2.337,2.346
			c1.022,0.956,2.085,1.848,3.247,2.631c1.879,1.267,3.949,2.247,6.082,3.008c2.342,0.831,4.782,1.39,7.218,1.864
			c4.635,0.901,9.323,1.493,13.989,2.193c2.16,0.324,4.317,0.682,6.471,1.05c-0.009,0.081-0.015,0.167-0.015,0.254
			c-0.005,0.239,0.05,0.476,0.121,0.702c0.057,0.184,0.118,0.364,0.164,0.55c0.066,0.346,0.132,0.695,0.217,1.039
			c0.088,0.353,0.197,0.699,0.276,1.055c-0.009-0.05-0.018-0.099-0.028-0.147c0.156,0.73,0.349,1.449,0.557,2.166
			c0.202,0.691,0.37,1.39,0.522,2.096c0.167,0.866,0.294,1.739,0.364,2.618c0.044,0.774,0.042,1.55,0,2.324
			c-0.066,0.826-0.184,1.647-0.34,2.462c-0.169,0.772-0.401,1.528-0.655,2.276c-0.465,1.307-1.002,2.585-1.572,3.848
			c-0.548,1.208-1.101,2.418-1.686,3.607c-0.393,0.772-0.798,1.537-1.221,2.294c-1.11,1.971-2.247,3.929-3.434,5.857
			c-1.237,2.006-2.568,3.96-3.883,5.916c-0.024,0.035-0.048,0.07-0.072,0.107c-0.022,0.031-0.042,0.061-0.064,0.092
			c-0.002,0.004-0.004,0.007-0.007,0.011c-0.789,1.171-1.559,2.355-2.348,3.526c-0.007,0.009-0.011,0.018-0.018,0.026
			c-0.461,0.678-0.956,1.333-1.447,1.987c-0.504,0.669-1.015,1.329-1.535,1.984c-0.991,1.252-1.96,2.519-2.923,3.793
			c-1.441,1.905-2.899,3.802-4.35,5.703c-1.399,1.831-2.807,3.662-4.118,5.559c-1.348,1.949-2.583,3.962-3.666,6.069
			c-0.537,1.041-1.057,2.092-1.566,3.146c-0.478,0.987-0.958,1.971-1.392,2.978c-0.445,1.039-0.859,2.087-1.248,3.147
			c-0.21,0.572-0.408,1.147-0.566,1.737c-0.14,0.52-0.252,1.048-0.362,1.577c-0.357,1.726-0.62,3.482-0.743,5.243
			c-0.368-0.715-0.759-1.419-1.167-2.111c-0.537-0.908-1.14-1.776-1.743-2.642c-0.612-0.873-1.241-1.726-1.908-2.559
			c-0.61-0.761-1.239-1.506-1.855-2.261c-0.618-0.757-1.241-1.511-1.886-2.245c-1.309-1.493-2.666-2.945-3.984-4.434
			c-1.246-1.438-2.395-2.965-3.467-4.535c-0.469-0.706-0.928-1.421-1.36-2.151c-0.463-0.785-0.881-1.592-1.292-2.403
			c-0.002-0.002-0.002-0.004-0.004-0.007c-0.015-0.031-0.031-0.061-0.046-0.092c-0.767-1.565-1.416-3.177-2.008-4.817
			c-0.862-2.522-1.568-5.089-2.12-7.696c-0.211-1.072-0.401-2.149-0.537-3.232c-0.134-1.057-0.222-2.118-0.296-3.182
			c-0.165-2.629-0.235-5.278-0.077-7.909c0.213-2.923,0.581-5.841,1.158-8.714c0.015-0.07,0.029-0.14,0.044-0.21
			c0-0.002,0-0.004,0.002-0.007c0-0.004,0-0.009,0.002-0.015c0.002-0.011,0.005-0.02,0.007-0.031
			c0.007-0.033,0.011-0.064,0.018-0.094c0.149-0.715,0.296-1.427,0.458-2.14c0.175-0.778,0.375-1.552,0.566-2.326
			c0.178-0.717,0.36-1.434,0.55-2.149c0.101-0.375,0.206-0.75,0.309-1.125c0.075-0.267,0.147-0.537,0.18-0.816
			c0.02-0.175,0.033-0.348,0.055-0.522c0.186-0.787,0.509-1.537,0.675-2.331c0.112-0.537,0.173-1.098,0.009-1.633
			c-0.074-0.241-0.162-0.493-0.318-0.693c-0.276-0.351-0.662-0.546-1.107-0.555c-0.596-0.011-1.083,0.371-1.495,0.754
			c-0.296,0.276-0.585,0.561-0.873,0.844c-0.599,0.585-1.158,1.208-1.713,1.837c-0.559,0.634-1.131,1.256-1.675,1.903
			c-0.526,0.625-1.037,1.261-1.541,1.903c-0.997,1.274-1.965,2.568-2.898,3.888c-1.191,1.686-2.357,3.405-3.396,5.19
			c-0.531,0.908-1.031,1.833-1.524,2.76c-0.482,0.912-0.956,1.829-1.386,2.769c-1.704,3.732-3.102,7.608-4.171,11.569
			c-0.541,2.006-1.026,4.03-1.419,6.072c-0.362,1.875-0.559,3.767-0.752,5.664c-0.066,0.656-0.136,1.307-0.193,1.962
			c-0.127,0.735-0.228,1.476-0.311,2.215c-0.09,0.8-0.132,1.598-0.132,2.403c0,0.761,0.011,1.524,0.039,2.285
			c0.026,0.713,0.044,1.425,0.105,2.136c0.079,0.906,0.233,1.811,0.436,2.697c0.171,0.75,0.419,1.478,0.667,2.206
			c-0.035-0.042-0.07-0.083-0.108-0.123c-0.121-0.14-0.241-0.279-0.36-0.419c-0.353-0.507-0.695-1.015-1.035-1.528
			c-0.382-0.581-0.759-1.164-1.127-1.752c-0.381-0.612-0.772-1.215-1.158-1.824c-0.382-0.603-0.763-1.204-1.131-1.813
			c-0.175-0.289-0.349-0.579-0.524-0.866c-0.164-0.267-0.333-0.533-0.493-0.805c-0.002-0.002-0.005-0.004-0.005-0.007
			c-0.002-0.002-0.004-0.004-0.004-0.007c-0.002-0.002-0.004-0.007-0.004-0.009c-0.118-0.2-0.232-0.401-0.342-0.605
			c-0.279-0.524-0.535-1.061-0.794-1.596c-0.042-0.09-0.086-0.178-0.132-0.265c-0.037-0.079-0.072-0.16-0.116-0.237
			c-0.083-0.147-0.158-0.296-0.228-0.449c-0.053-0.118-0.101-0.237-0.158-0.353c-0.075-0.156-0.158-0.303-0.334-0.364
			c-0.27-0.092-0.55,0.088-0.62,0.353c-0.039,0.142-0.053,0.278-0.055,0.425c-0.004,0.353-0.009,0.706,0.022,1.059
			c0.033,0.364,0.07,0.728,0.116,1.09c0.044,0.355,0.101,0.708,0.16,1.061c0.039,0.257,0.083,0.511,0.127,0.767
			c-0.002,0.022-0.002,0.044-0.002,0.066c-0.002,0.379,0.088,0.759,0.156,1.129c0.151,0.818,0.355,1.62,0.579,2.418
			c0.173,0.704,0.386,1.392,0.601,2.083c0.002,0.011,0.007,0.02,0.009,0.031c0.007,0.022,0.013,0.044,0.02,0.066
			c0.226,0.789,0.445,1.583,0.719,2.357c0.281,0.783,0.581,1.559,0.903,2.326c0.682,1.616,1.397,3.219,2.228,4.765
			c0.438,0.816,0.914,1.607,1.405,2.39c0.443,0.704,0.89,1.403,1.368,2.085c0.485,0.695,1.024,1.357,1.57,2.006
			c0.461,0.548,0.928,1.096,1.403,1.636c0.39,0.531,0.783,1.059,1.186,1.579c0.002,0,0.002,0.002,0.002,0.002
			c0.009,0.011,0.018,0.024,0.028,0.035c0.399,0.509,0.811,1.007,1.215,1.511c0.428,0.54,0.884,1.046,1.375,1.528
			c0.013,0.011,0.024,0.022,0.037,0.035c0.355,0.351,0.697,0.717,1.059,1.063c0.21,0.199,0.419,0.403,0.636,0.599
			c-0.007-0.002-0.013-0.004-0.02-0.007c-0.515-0.141-1.024-0.307-1.535-0.456c-0.539-0.156-1.072-0.327-1.601-0.515
			c-0.338-0.123-0.682-0.254-1.037-0.322c-0.281-0.053-0.583,0.02-0.77,0.248c-0.184,0.226-0.195,0.5-0.116,0.77
			c0.079,0.279,0.259,0.529,0.43,0.759c0.25,0.338,0.542,0.64,0.816,0.958c0.219,0.259,0.43,0.522,0.664,0.77
			c0.289,0.305,0.581,0.609,0.89,0.897c0.568,0.528,1.143,1.039,1.765,1.504c0.037,0.026,0.072,0.055,0.11,0.081
			c0.704,0.526,1.445,1.017,2.21,1.449c1.342,0.752,2.767,1.366,4.221,1.868c1.471,0.507,2.973,0.945,4.501,1.247
			c0.809,0.158,1.625,0.287,2.44,0.406c0.822,0.118,1.645,0.206,2.473,0.254c0.465,0.026,0.932,0.044,1.399,0.055
			c-0.379,0.149-0.761,0.298-1.145,0.439c-1.379,0.502-2.771,0.98-4.184,1.384c-0.816,0.221-1.647,0.386-2.484,0.509
			c-0.469,0.064-0.949,0.127-1.425,0.136c-0.024,0-0.044,0-0.068,0.002c-0.265,0.018-0.502,0.186-0.588,0.445
			c-0.09,0.274,0.013,0.603,0.265,0.757c0.212,0.13,0.465,0.127,0.708,0.147c0.294,0.024,0.59,0.053,0.884,0.077
			c0.614,0.05,1.228,0.088,1.842,0.108c1.315,0.042,2.629,0.11,3.947,0.11c0.05,0,0.101,0,0.151,0c0.004,0,0.011,0,0.013,0
			c0.04,0,0.077,0,0.114,0c0.261-0.002,0.52-0.004,0.781-0.009c1.785-0.04,3.563-0.298,5.315-0.629
			c1.743-0.329,3.484-0.671,5.225-1.02c0.792-0.158,1.581-0.311,2.368-0.493c0.732-0.171,1.469-0.335,2.201-0.511
			c0.704-0.171,1.403-0.357,2.109-0.52c0.752-0.171,1.509-0.302,2.272-0.414c0.395-0.052,0.792-0.096,1.189-0.147
			c0.18,0.763,0.377,1.52,0.587,2.274c0.182,0.662,0.373,1.32,0.577,1.976c0.002,0.002,0.004,0.004,0.004,0.007
			c0.002,0.005,0.005,0.009,0.007,0.013c0.077,0.134,0.147,0.267,0.213,0.41c0.072,0.158,0.145,0.318,0.217,0.478
			c0.169,0.366,0.34,0.73,0.504,1.101c0.36,0.807,0.71,1.62,1.046,2.438c0.004,0.007,0.006,0.015,0.011,0.024
			c0,0.002,0.002,0.005,0.002,0.007c0.002,0.004,0.002,0.007,0.004,0.009c0,0,0,0-0.002,0c0.018,0.042,0.037,0.086,0.053,0.129
			c-0.002-0.009-0.004-0.015-0.007-0.022c0.096,0.237,0.191,0.476,0.281,0.717c0.653,0.993,1.399,1.903,2.234,2.754
			c0.829,0.842,1.73,1.638,2.704,2.311c0.539,0.373,1.096,0.733,1.682,1.028c0.577,0.292,1.158,0.561,1.75,0.816
			c1.079,0.463,2.173,0.866,3.311,1.156c1.289,0.327,2.57,0.684,3.876,0.945c1.068,0.213,2.147,0.371,3.225,0.531
			c1.105,0.162,2.219,0.265,3.328,0.41c2.401,0.316,4.795,0.757,7.218,0.882c0.566,0.029,1.136,0.044,1.706,0.044
			c0.502,0,1.004-0.011,1.506-0.033c1.256-0.05,2.484-0.239,3.697-0.572c1.166-0.324,2.35-0.583,3.517-0.91
			c0.563-0.156,1.131-0.298,1.695-0.456c0.083-0.022,0.167-0.046,0.25-0.068c0.333-0.015,0.667-0.031,1-0.044
			c1.133-0.048,2.265-0.092,3.399-0.121c1.068-0.026,2.131-0.022,3.197,0.009c0.539,0.015,1.079,0.035,1.618,0.061
			c0.493,0.024,0.987,0.046,1.48,0.035c0.024,0.136,0.046,0.27,0.079,0.406c0.029,0.129,0.07,0.254,0.107,0.379
			c0.004,0.261,0,0.517,0.033,0.781c0.022,0.182,0.064,0.364,0.092,0.548c0.009,0.21,0.009,0.423,0.013,0.636
			c0.007,0.222,0.029,0.439,0.027,0.66c-0.029,0.351-0.096,0.695-0.132,1.046c-0.039,0.382-0.116,0.759-0.118,1.145
			c-0.002,0.34,0.011,0.682,0.037,1.02c0.031,0.379,0.123,0.741,0.208,1.109c0.053,0.243,0.081,0.489,0.136,0.732
			c0.057,0.25,0.16,0.471,0.261,0.706c0.084,0.2,0.154,0.406,0.248,0.603c0.167,0.349,0.393,0.669,0.671,0.939
			c0.542,0.524,1.248,0.778,1.969,0.947c0.333,0.079,0.669,0.134,1.011,0.151c0.32,0.018,0.638,0.02,0.959,0.026
			c0.147,0.011,0.291,0.031,0.436,0.053c0.035,0.007,0.072,0.015,0.11,0.024c1.653,0.366,3.318,0.704,4.969,1.086
			c0.46,0.105,0.921,0.217,1.377,0.344c0.467,0.127,0.928,0.294,1.406,0.384c0.925,0.173,1.864,0.274,2.8,0.357
			c0.421,0.037,0.837,0.099,1.259,0.129c0.287,0.02,0.572,0.031,0.857,0.031c0.215,0,0.428-0.007,0.643-0.02
			c0.491-0.029,0.985-0.066,1.469-0.162c0.473-0.099,0.943-0.219,1.408-0.355c0.844-0.25,1.69-0.529,2.495-0.89
			c0.357-0.162,0.715-0.338,1.065-0.518c0.463-0.235,0.886-0.5,1.311-0.794c0.042-0.026,0.081-0.055,0.123-0.083
			c0.583-0.399,1.16-0.794,1.653-1.305c0.232-0.239,0.458-0.495,0.654-0.767c0.162-0.228,0.313-0.467,0.467-0.704
			c0.377-0.572,0.739-1.147,0.987-1.791c0.121-0.318,0.217-0.645,0.287-0.976c0.053-0.248,0.092-0.498,0.169-0.741
			c0.079-0.248,0.149-0.493,0.202-0.748c0.004-0.018,0.009-0.035,0.011-0.053c0.243,0.02,0.483,0.053,0.724,0.083
			c0.3,0.039,0.601,0.057,0.899,0.105c0.138,0.028,0.276,0.061,0.412,0.103c0.145,0.048,0.287,0.101,0.436,0.134
			c0.138,0.031,0.276,0.057,0.414,0.088c0.274,0.061,0.542,0.134,0.811,0.21c0.603,0.171,1.237,0.292,1.861,0.325
			c0.182,0.011,0.364,0.018,0.544,0.018c0.235,0,0.467-0.011,0.702-0.042c0.259-0.031,0.52-0.077,0.776-0.129
			c0.29-0.062,0.57-0.14,0.853-0.224c0.331-0.101,0.664-0.197,0.961-0.382c0.662-0.414,1.186-0.987,1.594-1.649
			c0.252-0.408,0.43-0.844,0.581-1.296c0.206-0.009,0.414-0.009,0.623,0.004c0.485,0.037,0.971,0.092,1.449,0.184
			c0.454,0.101,0.89,0.248,1.34,0.366c0.5,0.131,1.002,0.235,1.509,0.335c0.292,0.061,0.57,0.162,0.857,0.232
			c0.353,0.088,0.713,0.147,1.072,0.2c0.71,0.103,1.436,0.164,2.153,0.167c0.004,0,0.011,0,0.015,0c0.382,0,0.761-0.026,1.14-0.048
			c0.449-0.028,0.901-0.046,1.346-0.107c0.84-0.114,1.642-0.351,2.449-0.603c0.485-0.151,0.947-0.327,1.395-0.566
			c0.348-0.186,0.677-0.401,1.006-0.616c0.39-0.257,0.79-0.504,1.164-0.785c0.353-0.263,0.678-0.557,1.006-0.849
			c0.384-0.344,0.735-0.706,1.03-1.134c0.318-0.46,0.585-0.943,0.82-1.449c0.18-0.393,0.375-0.785,0.524-1.191
			c0.232-0.623,0.362-1.256,0.401-1.919c0.031-0.504-0.013-1.015-0.092-1.513c-0.092-0.594-0.226-1.16-0.452-1.719
			c-0.215-0.526-0.487-1.052-0.851-1.496c-0.428-0.52-0.912-0.958-1.48-1.322c-0.491-0.314-1.031-0.537-1.592-0.695
			c-0.445-0.125-0.904-0.162-1.357-0.23c-0.813-0.12-1.638-0.123-2.458-0.145c-0.386-0.011-0.774-0.009-1.16-0.004
			c0.467-0.482,0.888-1.006,1.333-1.511c0.412-0.471,0.811-0.947,1.195-1.441c0.445-0.566,0.822-1.178,1.171-1.805
			c0.57-1.03,1.076-2.09,1.649-3.118c0.219-0.395,0.441-0.787,0.682-1.166c0.221-0.349,0.447-0.697,0.651-1.057
			c0.292-0.513,0.564-1.039,0.759-1.596c0.191-0.548,0.353-1.105,0.504-1.664c0.491-1.831,0.912-3.684,1.188-5.561
			c0.154-1.044,0.252-2.094,0.298-3.147c0.039-0.895,0.061-1.794,0.006-2.686c-0.033-0.544-0.072-1.083-0.147-1.622
			c-0.066-0.474-0.154-0.943-0.248-1.412c-0.204-1.017-0.441-2.028-0.776-3.013c-0.002-0.009-0.007-0.018-0.009-0.026
			c-0.004-0.015-0.011-0.028-0.015-0.044c-0.029-0.083-0.057-0.164-0.086-0.246c-0.307-0.84-0.629-1.677-0.936-2.517
			c-0.303-0.827-0.627-1.645-0.969-2.454c-0.309-0.728-0.636-1.445-1.013-2.138c0.09-0.261,0.173-0.522,0.257-0.783
			c0.169-0.535,0.325-1.072,0.485-1.609c0.177-0.592,0.377-1.177,0.552-1.769c0.316-1.068,0.612-2.14,0.899-3.215
			c0.153-0.579,0.298-1.158,0.425-1.739c0.116-0.535,0.208-1.074,0.318-1.609c0.118-0.57,0.248-1.14,0.355-1.712
			c0.129-0.684,0.226-1.372,0.3-2.065c0.123-1.162,0.217-2.324,0.303-3.491c0.136-1.859,0.305-3.719,0.414-5.58
			c-0.116-0.776-0.241-1.55-0.384-2.322c-0.256-1.377-0.55-2.75-0.897-4.109c-0.224-0.875-0.465-1.745-0.713-2.614
			c-0.149-0.526-0.3-1.05-0.452-1.574c-0.204-0.702-0.404-1.403-0.612-2.103c-0.412-1.368-0.846-2.73-1.3-4.085
			c-0.458-1.37-0.936-2.732-1.405-4.098c-0.232-0.677-0.465-1.353-0.693-2.03c-0.25-0.739-0.496-1.476-0.735-2.217
			c-0.458-1.423-0.864-2.866-1.263-4.306c-0.189-0.68-0.373-1.364-0.55-2.046c-0.051-0.274-0.096-0.548-0.138-0.824
			c-0.175-1.112-0.329-2.232-0.46-3.35c-0.066-0.632-0.112-1.265-0.18-1.895c-0.072-0.662-0.14-1.322-0.202-1.984
			c-0.059-0.664-0.119-1.329-0.151-1.993c-0.02-0.447-0.026-0.897-0.024-1.344c0.178-0.919,0.384-1.833,0.636-2.734
			c0.186-0.664,0.368-1.331,0.555-1.995c0.175-0.621,0.331-1.245,0.511-1.866c0.213-0.673,0.443-1.342,0.669-2.011
			c0.116-0.342,0.237-0.682,0.379-1.013c0.136-0.314,0.274-0.627,0.408-0.941c0.191-0.445,0.384-0.89,0.557-1.344
			c0.07-0.151,0.14-0.302,0.21-0.452c0.02-0.039,0.037-0.079,0.057-0.118c0.121-0.046,0.241-0.088,0.364-0.132
			c-0.002-0.009-0.004-0.015-0.007-0.024c0.066-0.026,0.132-0.05,0.198-0.074c0.886-0.325,1.793-0.592,2.69-0.879
			c0.886-0.283,1.769-0.575,2.649-0.879c1.73-0.601,3.443-1.252,5.133-1.951c1.798-0.743,3.592-1.511,5.333-2.383
			c0.851-0.428,1.699-0.864,2.535-1.324c0.875-0.484,1.726-1.017,2.563-1.566c1.633-1.072,3.188-2.258,4.64-3.565
			c0.379-0.34,0.754-0.686,1.094-1.068c0.285-0.32,0.544-0.662,0.818-0.991c0.362-0.436,0.741-0.866,1.055-1.342
			c0.283-0.432,0.509-0.892,0.75-1.346c0.175-0.311,0.351-0.623,0.522-0.939c0.184-0.342,0.3-0.708,0.436-1.072
			c0.202-0.487,0.421-0.967,0.632-1.447c0.02-0.046,0.039-0.09,0.057-0.134c0.513,0.634,1.127,1.195,1.761,1.704
			c0.436,0.349,0.971,0.612,1.502,0.792c0.52,0.178,1.055,0.338,1.607,0.375c0.147,0.009,0.296,0.013,0.443,0.013
			c0.974,0,1.941-0.206,2.829-0.616c0.947-0.439,1.796-1.103,2.572-1.796c1.401-1.248,2.636-2.666,3.778-4.155
			c1.112-1.449,2.111-2.973,3.03-4.552c0.984-1.688,1.853-3.436,2.68-5.205c0.39-0.835,0.772-1.675,1.12-2.53
			c0.351-0.862,0.669-1.737,0.971-2.618c0.629-1.822,1.186-3.668,1.682-5.532c0.485-1.824,0.952-3.657,1.379-5.497
			c0.434-1.866,0.822-3.743,1.186-5.624c0.362-1.866,0.711-3.734,1.017-5.611c0.296-1.813,0.548-3.633,0.836-5.449
			c0.309-1.962,0.533-3.929,0.596-5.918C361.105,187.9,361.073,186.865,360.972,185.817z M184.637,371.947
			c-1.173,0.077-2.339,0.215-3.499,0.388c-0.73,0.11-1.454,0.25-2.177,0.399c-0.785,0.164-1.574,0.329-2.346,0.55
			c-0.822,0.235-1.636,0.491-2.451,0.748c-0.813,0.252-1.618,0.533-2.438,0.77c-1.704,0.467-3.443,0.802-5.188,1.066
			c0.143-0.059,0.283-0.118,0.423-0.18c0.101-0.035,0.199-0.075,0.298-0.118c0.147-0.064,0.292-0.132,0.441-0.197
			c0.143-0.061,0.287-0.123,0.43-0.191c0.083-0.04,0.164-0.081,0.248-0.123c0.107-0.051,0.215-0.103,0.325-0.156
			c0.16-0.077,0.318-0.156,0.478-0.237c0.162-0.077,0.327-0.154,0.493-0.226c0.232-0.103,0.471-0.191,0.706-0.292
			c0.228-0.094,0.445-0.195,0.664-0.305l0.002-0.002c0.011-0.007,0.022-0.011,0.031-0.015c0.002,0,0.002-0.002,0.004-0.002
			c0,0,0.002-0.002,0.004-0.002c0.081-0.04,0.162-0.079,0.241-0.121c0.362-0.186,0.719-0.379,1.068-0.59
			c0.153-0.092,0.307-0.184,0.463-0.274c0.072-0.042,0.142-0.083,0.215-0.127c0.035-0.02,0.07-0.042,0.103-0.063
			c0.04-0.024,0.075-0.053,0.107-0.083c0.005-0.002,0.007-0.004,0.011-0.009c0.099-0.061,0.237-0.103,0.296-0.208
			c0.059-0.103,0.033-0.23-0.059-0.305c-0.075-0.061-0.167-0.055-0.255-0.026c-0.041,0.013-0.088,0.024-0.131,0.033
			c-0.031,0.007-0.061,0.013-0.092,0.02c-0.007,0-0.015,0.002-0.022,0.004c-0.002,0-0.004,0-0.009,0
			c-0.107,0.022-0.217,0.033-0.327,0.046c-0.114,0.015-0.228,0.029-0.342,0.039c-0.202,0.02-0.406,0.033-0.61,0.048
			c-0.112,0.007-0.224,0.011-0.335,0.02c0,0,0,0-0.002,0c-0.011,0-0.022,0-0.035,0.002c-0.013,0-0.024,0-0.037,0.002
			c-0.048,0.002-0.099,0.007-0.147,0.011c-0.211,0.02-0.421,0.042-0.632,0.061c-0.239,0.02-0.478,0.037-0.717,0.061
			c-0.173,0.02-0.346,0.039-0.522,0.061c-0.12,0.007-0.243,0.013-0.366,0.013c-0.338,0.002-0.675,0.011-1.011,0.015
			c-0.844,0.004-1.688-0.044-2.528-0.145h-0.002c-0.004,0-0.006,0-0.009-0.002c-0.004,0-0.007,0-0.009,0c-0.002,0-0.005,0-0.007,0
			c-1.574-0.206-3.127-0.518-4.664-0.917c-1.326-0.353-2.636-0.754-3.912-1.261c-0.702-0.292-1.386-0.62-2.066-0.954
			c-0.629-0.309-1.257-0.625-1.87-0.965c-0.973-0.557-1.916-1.166-2.82-1.829c-0.638-0.48-1.267-0.973-1.906-1.456
			c0.467,0.151,0.936,0.294,1.406,0.434c0.254,0.077,0.509,0.158,0.768,0.222c0.25,0.059,0.498,0.123,0.745,0.189
			c0.522,0.134,1.042,0.278,1.577,0.364c0.546,0.088,1.092,0.167,1.636,0.267c0.276,0.05,0.553,0.105,0.829,0.151
			c0.265,0.044,0.531,0.079,0.794,0.129c0.136,0.028,0.272,0.064,0.408,0.094c0.072,0.016,0.147,0.033,0.222,0.044
			c0.042,0.009,0.085,0.011,0.127,0.018c0.02,0.004,0.04,0.009,0.059,0.013c0.02,0.011,0.042,0.015,0.064,0.015
			c0.018,0,0.035-0.002,0.053-0.009c0.02,0.007,0.042,0.011,0.063,0.011c0.066,0,0.134-0.035,0.169-0.094
			c0.053-0.092,0.02-0.213-0.07-0.265c-0.017-0.011-0.037-0.017-0.057-0.022c-0.055-0.03-0.11-0.061-0.167-0.092
			c-0.11-0.059-0.224-0.114-0.329-0.18c-0.232-0.145-0.461-0.294-0.689-0.447c-0.002,0-0.002-0.002-0.004-0.002
			c-0.002-0.002-0.004-0.004-0.009-0.007c-0.14-0.099-0.272-0.208-0.406-0.32c-0.123-0.103-0.252-0.197-0.384-0.292
			c-0.289-0.211-0.561-0.443-0.844-0.662c-0.476-0.373-0.952-0.746-1.419-1.131c-0.204-0.171-0.408-0.342-0.607-0.518
			c-0.101-0.085-0.202-0.171-0.305-0.257c-0.43-0.485-0.886-0.947-1.329-1.421c-0.559-0.599-1.107-1.204-1.645-1.82
			c-1.092-1.254-2.158-2.533-3.195-3.831c-0.482-0.609-0.95-1.232-1.421-1.851c-0.478-0.631-0.96-1.261-1.43-1.899
			c-0.973-1.32-1.905-2.664-2.765-4.061c-0.031-0.051-0.061-0.101-0.092-0.151c-0.024-0.039-0.048-0.079-0.072-0.118
			c-0.627-1.055-1.164-2.151-1.655-3.271c-0.574-1.327-1.072-2.688-1.57-4.045c-0.188-0.509-0.362-1.026-0.528-1.544
			c0.125,0.197,0.254,0.395,0.382,0.59c0.254,0.386,0.511,0.774,0.785,1.142c0.342,0.461,0.697,0.91,1.059,1.353
			c0.634,0.778,1.311,1.517,1.98,2.265c0.715,0.796,1.401,1.625,2.182,2.362c0.309,0.292,0.623,0.579,0.943,0.855
			c0.346,0.298,0.708,0.574,1.057,0.868c0.145,0.123,0.276,0.257,0.417,0.384c0.118,0.103,0.237,0.208,0.357,0.307
			c0.184,0.149,0.419,0.298,0.662,0.32c0.009,0,0.017,0.002,0.026,0.005c0.024,0.024,0.053,0.035,0.083,0.035
			c0.075,0,0.151-0.066,0.138-0.154c0.006-0.02,0.013-0.039,0.017-0.061c0.011-0.033,0.015-0.068,0.02-0.101
			c0.022-0.197-0.035-0.408-0.112-0.588c-0.018-0.039-0.035-0.079-0.055-0.116c0-0.007-0.002-0.013-0.004-0.02
			c-0.079-0.303-0.165-0.605-0.252-0.906c-0.171-0.577-0.355-1.149-0.513-1.726c-0.11-0.421-0.217-0.844-0.305-1.272
			c-0.094-0.458-0.182-0.919-0.27-1.377c-0.169-0.866-0.307-1.737-0.421-2.609c0-0.013-0.002-0.024-0.004-0.035
			c0-0.009-0.002-0.018-0.002-0.024c0-0.004,0-0.009-0.002-0.011c0-0.009-0.002-0.018-0.002-0.026
			c-0.004-0.033-0.009-0.068-0.013-0.101c-0.12-0.952-0.235-1.903-0.302-2.859c-0.066-0.974-0.092-1.945-0.09-2.921
			c0-0.002,0-0.004,0-0.007c0-0.002,0-0.002,0-0.004c0.011-1.077,0.053-2.151,0.114-3.225c0.059-1.061,0.151-2.116,0.287-3.171
			c0.145-1.039,0.311-2.074,0.489-3.107c0.184-1.072,0.379-2.142,0.592-3.208c0.243-1.219,0.493-2.434,0.768-3.646
			c0.241-1.063,0.509-2.12,0.787-3.177c0.018-0.066,0.035-0.134,0.053-0.2c0.004-0.013,0.007-0.026,0.011-0.037
			c0.294-1.09,0.603-2.173,0.938-3.252c0.278-0.901,0.537-1.809,0.831-2.704c0.164-0.357,0.335-0.713,0.511-1.068
			c0.081-0.226,0.162-0.452,0.245-0.677c0.322-0.89,0.645-1.783,1-2.662c0.677-1.666,1.44-3.298,2.241-4.909
			c0.59-1.16,1.213-2.305,1.883-3.418c0.618-1.026,1.283-2.022,1.951-3.015c0.704-1.042,1.412-2.079,2.177-3.076
			c0.25-0.327,0.502-0.649,0.761-0.969c-0.151,0.342-0.296,0.684-0.436,1.031c-0.636,1.568-1.149,3.199-1.539,4.846
			c-0.476,2.022-0.783,4.094-1.015,6.157c-0.233,2.059-0.41,4.118-0.45,6.192c-0.039,2.052,0.057,4.111,0.211,6.157
			c0.072,0.969,0.158,1.94,0.285,2.903c0.134,1.024,0.316,2.037,0.526,3.048c0.206,0.974,0.434,1.945,0.697,2.905
			c0.309,1.12,0.675,2.221,1.061,3.32c0.322,0.914,0.66,1.826,1.026,2.725c0.395,0.971,0.835,1.923,1.298,2.866
			c0.5,1.026,1.011,2.052,1.585,3.039c0.541,0.932,1.129,1.838,1.736,2.726c1.175,1.719,2.462,3.35,3.842,4.909
			c0.686,0.774,1.384,1.541,2.096,2.293c0.669,0.704,1.357,1.39,2.035,2.085c1.37,1.403,2.739,2.811,4.035,4.282
			c0.715,0.818,1.417,1.647,2.118,2.473c1.32,1.559,2.614,3.142,3.796,4.809c0.566,0.802,1.142,1.598,1.73,2.383
			c0.25,0.331,0.487,0.673,0.737,1.004c0.044,0.059,0.09,0.118,0.136,0.178c0.02,0.533,0.046,1.066,0.061,1.6
			c0.033,1.211,0.053,2.423,0.121,3.633c0.068,1.182,0.16,2.364,0.252,3.543c0.057,0.735,0.147,1.462,0.265,2.186
			C185.332,371.909,184.979,371.925,184.637,371.947z M179.313,142.027c0.476-0.445,0.967-0.873,1.487-1.265
			c0.478-0.338,0.971-0.651,1.478-0.943c0.342-0.18,0.691-0.338,1.048-0.485c0.614-0.234,1.235-0.441,1.868-0.614
			c0.84-0.197,1.691-0.346,2.546-0.458c1.219-0.134,2.449-0.206,3.675-0.206c0.024,0,0.048,0,0.072,0
			c0.936,0.029,1.868,0.097,2.8,0.178c0.921,0.079,1.844,0.143,2.769,0.202c1.87,0.121,3.747,0.182,5.622,0.237
			c1.818,0.053,3.638,0.096,5.458,0.165c1.579,0.059,3.155,0.134,4.721,0.338c0.98,0.147,1.947,0.344,2.905,0.601
			c0.842,0.246,1.669,0.535,2.48,0.873c0.811,0.362,1.601,0.761,2.366,1.208c0.77,0.476,1.513,0.993,2.226,1.55
			c0.723,0.594,1.412,1.228,2.065,1.899c1.791,1.919,3.302,4.076,5.104,5.984c0.005,0.005,0.009,0.009,0.013,0.013
			c-0.579,0.101-1.16,0.204-1.739,0.311c-2.504,0.458-5.001,0.998-7.464,1.647c-2.511,0.662-5.004,1.39-7.446,2.271
			c-1.145,0.414-2.291,0.831-3.412,1.311c-1.184,0.507-2.351,1.052-3.5,1.638c-0.248-0.445-0.5-0.888-0.758-1.324
			c-0.603-1.02-1.239-2.019-1.932-2.98c-1.182-1.636-2.469-3.182-3.907-4.6c-1.21-1.195-2.543-2.287-3.951-3.239
			c-1.506-1.017-3.118-1.879-4.855-2.427c-0.445-0.138-0.897-0.245-1.348-0.351c-0.375-0.088-0.75-0.182-1.129-0.261
			c-0.827-0.169-1.666-0.276-2.504-0.39c-0.768-0.107-1.535-0.206-2.311-0.239c-0.743-0.033-1.484-0.101-2.228-0.118
			c-0.16-0.005-0.322-0.007-0.485-0.007c-0.533,0-1.068,0.02-1.599,0.048c-0.239,0.013-0.522,0.026-0.778,0.092
			C178.879,142.462,179.094,142.242,179.313,142.027z M177.34,217.339c-0.741,1.969-1.487,3.938-2.103,5.951
			c-0.099-0.015-0.195-0.026-0.289-0.029c-0.068-0.002-0.138-0.006-0.206-0.011c-0.007-0.002-0.015-0.004-0.022-0.007
			c-0.022-0.011-0.044-0.024-0.066-0.035c-0.033-0.022-0.066-0.046-0.099-0.068c-0.042-0.035-0.081-0.072-0.121-0.11
			c-0.07-0.081-0.14-0.167-0.206-0.252c-0.123-0.18-0.239-0.362-0.349-0.55c-0.257-0.489-0.476-0.993-0.682-1.506
			c-0.156-0.406-0.303-0.811-0.443-1.223c-0.298-0.873-0.568-1.757-0.884-2.622c-0.357-0.982-0.743-1.958-1.186-2.905
			c-0.724-1.546-1.581-3.05-2.583-4.431c-0.575-0.794-1.175-1.566-1.813-2.311c-0.592-0.693-1.212-1.357-1.835-2.022
			c-1.158-1.228-2.305-2.456-3.318-3.809c-0.353-0.493-0.684-0.998-0.984-1.522c-0.16-0.307-0.307-0.618-0.441-0.939
			c-0.129-0.344-0.243-0.693-0.344-1.046c0-0.004,0-0.009-0.002-0.015c-0.053-0.23-0.092-0.463-0.129-0.695
			c-0.028-0.322-0.044-0.647-0.048-0.971c0.011-0.478,0.048-0.954,0.107-1.427c0.099-0.612,0.226-1.217,0.384-1.813
			c0.351-1.167,0.831-2.28,1.3-3.405c0.489-1.171,0.965-2.348,1.421-3.532c0.643-1.671,1.256-3.355,1.818-5.056
			c0.618-1.87,1.199-3.756,1.651-5.677c0.447-1.895,0.827-3.809,1.316-5.694c0.25-0.963,0.515-1.921,0.779-2.881
			c0.25-0.914,0.482-1.838,0.734-2.754c0.224-0.789,0.463-1.577,0.697-2.366c0.278-0.928,0.568-1.851,0.916-2.756
			c0.338-0.882,0.656-1.772,1.017-2.642c0.368-0.882,0.745-1.754,1.088-2.644c0.309-0.798,0.623-1.594,0.958-2.386
			c0.631-1.443,1.311-2.864,2.109-4.223c0.651-1.053,1.36-2.07,2.12-3.043c0.211-0.259,0.425-0.513,0.647-0.761
			c0.009,0,0.015,0,0.024-0.002c0.197,0.052,0.412,0.068,0.614,0.099c0.428,0.068,0.857,0.114,1.281,0.202
			c0.787,0.167,1.574,0.355,2.351,0.57c0.967,0.274,1.91,0.656,2.837,1.042c0.831,0.366,1.618,0.824,2.397,1.287
			c0.434,0.268,0.846,0.564,1.256,0.866c0.443,0.325,0.892,0.638,1.331,0.971c0.844,0.638,1.697,1.263,2.526,1.919
			c1.23,0.998,2.396,2.061,3.502,3.195c1.017,1.079,1.96,2.219,2.842,3.41c0.71,0.982,1.375,1.997,1.993,3.041
			c0.252,0.421,0.498,0.848,0.739,1.278c-0.873,0.546-1.728,1.123-2.561,1.728c-1.083,0.792-2.149,1.598-3.153,2.486
			c-1,0.886-1.938,1.851-2.844,2.831c-1.647,1.78-2.997,3.839-4.16,5.962c-0.618,1.127-1.186,2.272-1.664,3.464
			c-0.254,0.636-0.511,1.274-0.71,1.93c-0.202,0.669-0.379,1.344-0.535,2.026c-0.559,2.447-0.895,4.942-1.16,7.438
			c-0.092,0.829-0.186,1.656-0.322,2.476c-0.151,0.908-0.325,1.811-0.504,2.712c-0.333,1.653-0.686,3.302-1.077,4.942
			c-0.528,2.145-1.118,4.278-1.743,6.396c-0.586,1.976-1.27,3.921-1.956,5.863C178.835,213.305,178.099,215.326,177.34,217.339z
			 M302.395,349.172c-0.007,0.48,0.015,0.958,0.024,1.436c0.013,1.004-0.068,2.008-0.125,3.008c-0.072,0.967-0.191,1.93-0.307,2.888
			c-0.129,1.081-0.283,2.158-0.491,3.223c-0.32,1.513-0.688,3.008-1.107,4.497c-0.123,0.439-0.25,0.875-0.381,1.309
			c-0.127,0.412-0.261,0.822-0.349,1.243c-0.156,0.761-0.279,1.526-0.43,2.287c-0.154,0.686-0.355,1.364-0.583,2.028
			c-0.226,0.629-0.487,1.246-0.759,1.855c-0.3,0.673-0.616,1.34-0.943,2c-0.201,0.388-0.421,0.77-0.66,1.136
			c-0.121,0.171-0.248,0.338-0.384,0.496c-0.379,0.417-0.783,0.814-1.202,1.188c-0.258,0.224-0.537,0.43-0.776,0.673
			c-0.208,0.215-0.366,0.46-0.555,0.688c-0.088,0.096-0.175,0.195-0.261,0.294c-0.728-0.011-1.456-0.026-2.182,0.009
			c-0.404,0.02-0.794,0.068-1.178,0.195c-0.261,0.085-0.592,0.188-0.721,0.449c-0.129,0.261,0.112,0.5,0.322,0.612
			c0.267,0.145,0.557,0.261,0.848,0.351c0.388,0.118,0.796,0.167,1.199,0.204c0.805,0.074,1.605,0.158,2.41,0.243
			c0.903,0.096,1.811,0.154,2.719,0.232c0.404,0.035,0.807,0.07,1.213,0.108c0.366,0.031,0.735,0.061,1.098,0.125
			c0.165,0.037,0.329,0.079,0.489,0.13c0.237,0.085,0.474,0.171,0.704,0.276c0.026,0.015,0.051,0.031,0.077,0.046
			c0.022,0.017,0.044,0.035,0.066,0.053c0.086,0.079,0.171,0.16,0.254,0.243c0.024,0.028,0.046,0.059,0.068,0.09
			c0.042,0.064,0.083,0.125,0.125,0.189c0.044,0.064,0.088,0.127,0.13,0.193c0.397,0.592,0.752,1.212,1.076,1.846
			c0.048,0.101,0.094,0.2,0.136,0.303c0.015,0.057,0.031,0.116,0.046,0.175c0.068,0.384,0.112,0.772,0.143,1.162
			c0.02,0.351,0.026,0.702,0.013,1.05c-0.009,0.088-0.02,0.175-0.033,0.261c-0.026,0.11-0.057,0.217-0.092,0.327
			c-0.125,0.342-0.27,0.675-0.428,1.004c-0.112,0.215-0.226,0.428-0.355,0.631c-0.075,0.101-0.149,0.197-0.23,0.292
			c-0.16,0.175-0.327,0.342-0.504,0.5c-0.136,0.116-0.276,0.228-0.423,0.333c-0.164,0.103-0.331,0.197-0.504,0.287
			c-0.243,0.116-0.493,0.226-0.739,0.336c-0.246,0.108-0.487,0.219-0.737,0.314c-0.454,0.145-0.921,0.263-1.388,0.364
			c-0.537,0.105-1.077,0.202-1.62,0.246c-0.682,0.042-1.362,0.072-2.044,0.083c-0.338,0.007-0.675,0.013-1.011,0.015
			c-0.316,0-0.627,0.018-0.943,0.037c-0.268,0.013-0.533,0.004-0.802-0.013c0.057,0.005,0.114,0.009,0.171,0.013
			c-0.447-0.033-0.89-0.05-1.337-0.057c-0.377-0.004-0.752,0.02-1.127,0.02c-0.691-0.002-1.377-0.055-2.065-0.007
			c-0.048,0.002-0.099,0.007-0.149,0.009c0.033-0.191,0.061-0.384,0.083-0.575c0.039-0.311,0.077-0.62,0.112-0.932
			c0.027-0.221,0.042-0.45,0.035-0.673c-0.004-0.167-0.026-0.331-0.048-0.496c-0.004-0.318,0.002-0.636,0-0.954
			c0-0.342-0.022-0.682-0.024-1.024c-0.002-0.386-0.002-0.767-0.05-1.151c-0.042-0.313-0.083-0.631-0.14-0.943
			c-0.055-0.305-0.118-0.61-0.18-0.914c-0.092-0.441-0.184-0.873-0.349-1.294c-0.136-0.349-0.325-0.684-0.513-1.008
			c-0.18-0.311-0.382-0.612-0.607-0.893c-0.217-0.27-0.458-0.524-0.704-0.77c-0.261-0.259-0.546-0.467-0.849-0.669
			c0.007,0.002,0.011,0.007,0.018,0.009c-0.329-0.219-0.647-0.441-1.022-0.574c-0.34-0.123-0.675-0.202-1.026-0.267
			c-0.009-0.002-0.015-0.002-0.024-0.004c-0.007-0.002-0.013-0.002-0.022-0.004c-0.175-0.031-0.351-0.059-0.528-0.079
			c-0.182-0.02-0.364-0.026-0.546-0.033c0.307-0.322,0.612-0.647,0.921-0.969c0.291-0.292,0.592-0.574,0.868-0.879
			c0.27-0.294,0.491-0.629,0.748-0.934c0.283-0.34,0.583-0.662,0.866-1.002c0.279-0.335,0.557-0.673,0.831-1.013
			c0.645-0.8,1.274-1.614,1.853-2.464c0.428-0.629,0.842-1.261,1.294-1.873c0.215-0.283,0.43-0.568,0.645-0.853
			c0.717-0.949,1.395-1.927,2.085-2.896c0.658-0.925,1.322-1.846,1.921-2.813c0.645-1.035,1.252-2.096,1.862-3.153
			c0.627-1.083,1.252-2.169,1.846-3.274c2.364-4.396,4.532-8.898,6.387-13.535c0.002-0.009,0.007-0.015,0.009-0.024
			c0.195,0.704,0.375,1.412,0.526,2.131c0.129,0.64,0.25,1.281,0.311,1.932C302.408,348.279,302.399,348.724,302.395,349.172z
			 M297.566,299.72c0.555,1.798,1.14,3.585,1.653,5.396c0.502,1.78,0.941,3.581,1.456,5.359c0.221,0.759,0.417,1.524,0.64,2.28
			c0.219,0.752,0.414,1.513,0.594,2.274c0.05,0.228,0.101,0.456,0.147,0.686c0.072,1.199,0.127,2.401,0.147,3.602
			c0.007,1.548-0.072,3.094-0.248,4.631c-0.112,0.84-0.267,1.671-0.399,2.506c-0.147,0.914-0.243,1.833-0.375,2.75
			c-0.116,0.822-0.307,1.631-0.474,2.445c-0.16,0.789-0.327,1.574-0.526,2.355c-0.022,0.083-0.044,0.167-0.068,0.25
			c0.099-0.75,0.143-1.504,0.182-2.261c0.044-0.791,0.044-1.587,0.035-2.379c-0.004-0.443-0.015-0.884-0.031-1.324
			c-0.015-0.445-0.031-0.89-0.072-1.333c-0.075-0.781-0.176-1.559-0.283-2.335c-0.083-0.59-0.176-1.175-0.316-1.754
			c-0.132-0.542-0.27-1.085-0.445-1.612c-0.351-1.044-0.745-2.074-1.177-3.085c0.002,0.004,0.007,0.011,0.009,0.015
			c-0.154-0.355-0.311-0.71-0.502-1.048c-0.206-0.366-0.439-0.713-0.693-1.046c-0.27-0.351-0.581-0.783-1.046-0.866
			c-0.178-0.031-0.375-0.033-0.542,0.04c-0.296,0.127-0.456,0.371-0.505,0.677c-0.002,0.004-0.002,0.007-0.002,0.011
			c0,0.004-0.002,0.011-0.002,0.015v0.002c0,0.002,0,0.004,0,0.007c-0.017,0.215,0.007,0.425,0.037,0.638
			c-0.055-0.151-0.108-0.305-0.173-0.452c-0.243-0.552-0.518-1.098-0.805-1.629c-0.313-0.577-0.645-1.14-1.002-1.688
			c-0.351-0.539-0.711-1.074-1.075-1.605c-0.377-0.546-0.767-1.077-1.173-1.601c-0.004-0.004-0.007-0.011-0.013-0.017
			c-0.017-0.022-0.033-0.044-0.05-0.066c-0.002-0.002-0.004-0.004-0.004-0.007c-0.024-0.033-0.051-0.064-0.075-0.097
			c-0.022-0.029-0.044-0.057-0.066-0.086c-0.476-0.625-0.949-1.25-1.423-1.875c-0.493-0.651-0.962-1.314-1.39-2.008
			c-0.544-0.939-1.053-1.901-1.566-2.857c-0.493-0.921-0.978-1.848-1.395-2.809c-0.02-0.044-0.039-0.088-0.057-0.134
			c-0.004-0.011-0.009-0.02-0.013-0.031c-0.006-0.009-0.009-0.02-0.013-0.028c0-0.002,0-0.002-0.002-0.005
			c-0.001-0.004-0.003-0.008-0.004-0.012c0.002,0.003,0.003,0.007,0.005,0.01c-0.001-0.004-0.004-0.009-0.006-0.014
			c0-0.001-0.001-0.002-0.001-0.003c-0.234-0.574-0.454-1.156-0.625-1.75c0-0.002-0.002-0.004-0.002-0.004
			c-0.002-0.01-0.004-0.017-0.006-0.025c0.001,0.006,0.003,0.011,0.005,0.017c0.001,0.002,0.001,0.005,0.002,0.007
			c-0.002-0.008-0.004-0.016-0.007-0.025c0-0.001,0-0.002-0.001-0.003c-0.075-0.274-0.136-0.552-0.197-0.831
			c-0.064-0.292-0.125-0.583-0.237-0.859c0.002,0.004,0.004,0.009,0.007,0.011c-0.004-0.007-0.007-0.013-0.009-0.02
			c-0.002-0.004-0.004-0.009-0.007-0.015c-0.002-0.002-0.002-0.007-0.004-0.009c-0.002-0.007-0.004-0.013-0.009-0.02
			c0-0.004-0.002-0.007-0.005-0.011c-0.072-0.147-0.16-0.281-0.291-0.386c-0.178-0.143-0.423-0.252-0.658-0.219
			c-0.274,0.039-0.489,0.162-0.697,0.34c-0.219,0.189-0.395,0.423-0.592,0.636c-0.033,0.031-0.066,0.059-0.099,0.09
			c-0.002-0.033-0.005-0.064-0.007-0.096c0.004-0.103,0.013-0.204,0.026-0.307c0.134-0.954,0.349-1.899,0.57-2.833
			c0.25-1.055,0.513-2.105,0.787-3.151v-0.002c0.015-0.055,0.031-0.112,0.044-0.167c0.002-0.007,0.004-0.013,0.004-0.018
			c0.002,0,0.002-0.002,0.002-0.002v-0.002c0-0.002,0-0.002,0-0.005c0.002-0.004,0.002-0.009,0.005-0.015
			c0.007-0.018,0.011-0.04,0.017-0.059c0.013-0.055,0.031-0.114,0.046-0.171c0.197-0.711,0.397-1.421,0.629-2.118
			c0.243-0.721,0.515-1.43,0.805-2.134c0-0.002,0.002-0.004,0.002-0.007c0.022-0.055,0.044-0.11,0.068-0.164
			c0-0.002,0-0.004,0.002-0.007c0.007-0.015,0.013-0.031,0.02-0.046c0-0.002,0-0.002,0-0.002c0.007-0.013,0.011-0.024,0.015-0.037
			c-0.002,0.011-0.007,0.02-0.011,0.031c0.465-1.074,0.956-2.131,1.539-3.144c0,0,0-0.002,0.002-0.004
			c0.013-0.024,0.026-0.046,0.039-0.068c0.002-0.004,0.004-0.009,0.007-0.013c0.002-0.007,0.004-0.009,0.007-0.013
			c0,0,0.002-0.002,0.002-0.004c0.013-0.02,0.024-0.042,0.037-0.064c0.004-0.004,0.007-0.009,0.009-0.013
			c0.002-0.002,0.002-0.002,0.002-0.004c0.392-0.669,0.827-1.313,1.298-1.934c0.004-0.007,0.011-0.013,0.017-0.022
			c0.026-0.033,0.053-0.068,0.077-0.103c0.009-0.009,0.016-0.018,0.022-0.026c0.002-0.002,0.002-0.004,0.004-0.007
			c0.002,0,0.002-0.002,0.004-0.004c0.645-0.833,1.309-1.647,2.011-2.436c0.658-0.739,1.32-1.478,2.013-2.186
			c0.362-0.36,0.733-0.704,1.114-1.039c0,0.153,0.004,0.303,0.015,0.456c0.105,1.693,0.325,3.377,0.539,5.059
			c0.213,1.653,0.386,3.311,0.614,4.962c0.121,0.87,0.301,1.737,0.489,2.598c0.224,1.017,0.469,2.033,0.75,3.037
			c0.45,1.609,0.991,3.193,1.469,4.793C296.602,296.6,297.086,298.161,297.566,299.72z M355.334,196.465
			c-0.086,0.458-0.173,0.917-0.265,1.375c-0.708,3.594-1.427,7.186-2.234,10.759c-0.423,1.872-0.886,3.734-1.37,5.589
			c-0.452,1.723-0.914,3.44-1.453,5.135c-0.382,1.164-0.774,2.327-1.228,3.462c-0.474,1.195-1.009,2.366-1.559,3.528
			c-0.009,0.02-0.018,0.04-0.029,0.059c-0.947,1.971-1.987,3.899-3.164,5.743c-0.816,1.23-1.699,2.419-2.649,3.552
			c-0.583,0.675-1.193,1.329-1.846,1.936c-0.34,0.3-0.688,0.59-1.057,0.857c-0.12,0.081-0.243,0.16-0.37,0.232
			c-0.051,0.024-0.101,0.046-0.151,0.066c-0.085,0.028-0.171,0.052-0.259,0.077c-0.064,0.011-0.13,0.022-0.195,0.031
			c-0.03,0.002-0.059,0.002-0.087,0.004c-0.009-0.002-0.018-0.002-0.026-0.004c-0.061-0.013-0.123-0.031-0.184-0.046
			c-0.081-0.031-0.162-0.064-0.243-0.096c-0.007-0.007-0.013-0.011-0.02-0.018c-0.384-0.344-0.739-0.717-1.118-1.066
			c-0.436-0.395-0.895-0.761-1.303-1.184c-0.331-0.377-0.647-0.765-0.938-1.171c-0.353-0.522-0.664-1.068-0.961-1.625
			c-0.283-0.557-0.529-1.129-0.75-1.715c-0.287-0.794-0.548-1.603-0.741-2.425c-0.208-0.971-0.388-1.96-0.491-2.949
			c-0.092-0.892-0.202-1.783-0.289-2.673c-0.075-0.866-0.077-1.734-0.129-2.601c-0.027-0.417-0.044-0.831-0.046-1.248
			c-0.002-0.441,0.024-0.884,0.007-1.322c-0.018-0.416-0.079-0.831-0.129-1.243c-0.044-0.355-0.07-0.715-0.123-1.068
			c-0.134-0.875-0.344-1.732-0.647-2.565c-0.678-1.866-1.592-3.631-2.662-5.302c-2.066-3.23-4.396-6.273-6.751-9.295
			c-1.077-1.379-2.153-2.756-3.232-4.133c-0.555-0.71-1.123-1.399-1.741-2.055c-0.605-0.638-1.23-1.254-1.826-1.901
			c-0.607-0.693-1.162-1.438-1.713-2.179c-0.254-0.344-0.509-0.689-0.765-1.031c-0.234-0.316-0.48-0.623-0.713-0.941
			c-0.186-0.276-0.359-0.564-0.539-0.844c-0.21-0.329-0.436-0.647-0.634-0.985c-0.197-0.34-0.373-0.691-0.566-1.033
			c-0.187-0.329-0.375-0.66-0.555-0.993c-0.156-0.311-0.298-0.629-0.452-0.943c-0.16-0.327-0.338-0.642-0.509-0.963
			c-0.27-0.522-0.511-1.059-0.767-1.588c-0.311-0.64-0.616-1.285-0.912-1.934c-0.596-1.309-1.153-2.636-1.752-3.943
			c-0.366-0.796-0.746-1.587-1.18-2.348c-0.393-0.688-0.783-1.381-1.182-2.068c-0.39-0.671-0.807-1.331-1.259-1.958
			c-0.465-0.645-0.96-1.263-1.418-1.912c-0.009-0.013-0.018-0.026-0.026-0.039c-0.004-0.007-0.011-0.015-0.015-0.022
			c-0.002-0.002-0.002-0.002-0.002-0.002c-0.406-0.581-0.816-1.162-1.256-1.717c-0.27-0.338-0.559-0.66-0.838-0.991
			c-0.281-0.329-0.561-0.656-0.86-0.969c-0.535-0.561-1.123-1.048-1.73-1.528c-0.502-0.395-1.013-0.792-1.548-1.142
			c-0.465-0.303-0.962-0.599-1.498-0.757c-0.162-0.048-0.34,0.05-0.401,0.204c-0.059,0.147-0.005,0.3,0.112,0.399
			c0.259,0.217,0.52,0.432,0.776,0.649c0.634,0.542,1.241,1.105,1.802,1.719c0.392,0.438,0.774,0.89,1.16,1.335
			c0.434,0.502,0.866,1.007,1.248,1.55c0.002,0.002,0.004,0.004,0.007,0.007c0.29,0.417,0.581,0.829,0.873,1.245
			c0.585,0.838,1.134,1.693,1.609,2.596c0.39,0.743,0.813,1.469,1.208,2.21c0.355,0.682,0.682,1.375,0.984,2.081
			c0.329,0.763,0.671,1.517,1.004,2.276c0.73,1.669,1.388,3.363,2.022,5.069c0.009,0.026,0.017,0.05,0.026,0.074
			c0.002,0.007,0.004,0.015,0.009,0.022c0.006,0.022,0.015,0.042,0.022,0.061c0.013,0.037,0.028,0.075,0.042,0.112
			c0.169,0.465,0.34,0.928,0.522,1.388c0.167,0.417,0.34,0.829,0.5,1.25c0.118,0.329,0.237,0.66,0.384,0.98
			c0.143,0.314,0.296,0.623,0.434,0.941c0.142,0.329,0.276,0.662,0.419,0.991c0.136,0.311,0.292,0.612,0.447,0.91
			c0.182,0.355,0.349,0.717,0.515,1.079c0.184,0.399,0.401,0.781,0.609,1.169c0.32,0.627,0.618,1.265,0.963,1.881
			c0.342,0.612,0.704,1.213,1.079,1.807c0.5,0.789,0.984,1.587,1.438,2.405c0.474,0.853,0.969,1.695,1.539,2.489
			c0.48,0.671,1,1.314,1.511,1.962c0.535,0.68,1.068,1.362,1.601,2.041c2.25,2.877,4.512,5.741,6.615,8.729
			c0.636,0.917,1.279,1.835,1.864,2.785c0.572,0.93,1.116,1.875,1.627,2.839c0.195,0.377,0.39,0.752,0.592,1.125
			c0.171,0.316,0.355,0.625,0.526,0.938c0.028,0.055,0.057,0.11,0.086,0.165c0.193,0.377,0.366,0.759,0.515,1.155
			c0.131,0.358,0.281,0.708,0.419,1.064c0.099,0.281,0.184,0.568,0.254,0.857c0.103,0.5,0.167,1.004,0.241,1.508
			c0.079,0.513,0.164,1.024,0.215,1.542c0.066,0.791,0.118,1.585,0.208,2.375c0.046,0.412,0.114,0.822,0.169,1.232
			c0.061,0.43,0.11,0.862,0.169,1.289c0.064,0.439,0.143,0.873,0.215,1.307c0.072,0.439,0.125,0.879,0.195,1.318
			c-0.004,0.108-0.009,0.217-0.013,0.324c-0.033,0.897-0.051,1.792-0.129,2.684c0,0.002,0,0.004,0,0.007
			c-0.07,0.715-0.182,1.428-0.335,2.129c-0.127,0.528-0.283,1.048-0.465,1.561c-0.182,0.482-0.39,0.954-0.622,1.414
			c-0.134,0.254-0.276,0.507-0.432,0.75c-0.158,0.248-0.324,0.489-0.491,0.728c-0.353,0.507-0.715,1.004-1.105,1.482
			c-0.368,0.452-0.743,0.897-1.129,1.331c-0.27,0.294-0.55,0.574-0.835,0.853c-0.296,0.287-0.588,0.577-0.888,0.862
			c-0.605,0.577-1.23,1.136-1.859,1.689c-0.61,0.517-1.245,0.998-1.879,1.487c-0.601,0.46-1.213,0.901-1.835,1.331
			c-0.388,0.27-0.777,0.542-1.165,0.809c-0.009,0.007-0.02,0.013-0.028,0.02c-0.792,0.417-1.59,0.816-2.392,1.206
			c-1.541,0.748-3.111,1.441-4.675,2.138c-1.327,0.588-2.658,1.16-3.978,1.756c-0.686,0.309-1.37,0.623-2.041,0.965
			c-0.693,0.351-1.362,0.748-2.022,1.158c-1.59,0.987-3.142,2.03-4.723,3.028c-1.6,1.011-3.175,2.061-4.697,3.184
			c-1.588,1.171-3.065,2.473-4.368,3.956c-0.599,0.68-1.164,1.386-1.717,2.103c-0.259,0.338-0.526,0.669-0.77,1.015
			c-0.112,0.16-0.212,0.327-0.314,0.491c-0.055,0.092-0.132,0.195-0.145,0.303c-0.02,0.151,0.068,0.318,0.232,0.34
			c0.02,0.002,0.037,0.004,0.055,0.004c0.125,0,0.233-0.055,0.34-0.118c0.182-0.107,0.359-0.221,0.533-0.342
			c0.379-0.263,0.75-0.535,1.131-0.789c1.533-1.026,3.085-2.02,4.563-3.122c0.772-0.574,1.537-1.16,2.335-1.697
			c0.331-0.226,0.664-0.445,1.002-0.662c-0.147,0.274-0.283,0.553-0.412,0.831c0,0.002-0.002,0.007-0.005,0.009
			c-0.138,0.296-0.281,0.592-0.386,0.901c-0.11,0.318-0.211,0.638-0.292,0.963c-0.16,0.634-0.245,1.28-0.291,1.932
			c-0.048,0.638-0.066,1.28-0.145,1.917c-0.015,0.125-0.028,0.248-0.042,0.373c-0.02,0.013-0.042,0.028-0.061,0.042
			c-0.425,0.292-0.836,0.598-1.23,0.927c-0.789,0.658-1.559,1.346-2.285,2.079c-0.07,0.068-0.138,0.138-0.206,0.206
			c-1.105,1.114-2.127,2.318-3.081,3.563c-0.007,0.007-0.011,0.015-0.018,0.022c-0.412,0.535-0.811,1.077-1.182,1.642
			c-0.399,0.614-0.765,1.259-1.094,1.914c-0.625,1.25-1.167,2.544-1.596,3.875c-0.423,1.316-0.763,2.655-1.083,3.999
			c-0.298,1.248-0.568,2.5-0.734,3.774c-0.035,0.294-0.066,0.583-0.088,0.879c-0.02,0.267-0.046,0.539-0.037,0.809
			c0.011,0.294,0.083,0.575,0.193,0.846c0.077,0.186,0.182,0.388,0.36,0.498c0.178,0.105,0.346,0.143,0.55,0.138
			c0.156-0.002,0.32-0.029,0.465-0.083c0.217-0.079,0.406-0.224,0.579-0.373c0.116-0.096,0.228-0.195,0.342-0.294
			c0.011,0.079,0.022,0.156,0.033,0.235c0.044,0.281,0.096,0.557,0.154,0.835c0.12,0.599,0.263,1.184,0.456,1.765
			c0.18,0.542,0.399,1.072,0.609,1.605c0.233,0.592,0.496,1.171,0.787,1.737c0.349,0.68,0.732,1.342,1.127,1.995
			c0.353,0.581,0.721,1.153,1.11,1.712c0.386,0.555,0.774,1.112,1.177,1.655c0.395,0.531,0.8,1.053,1.199,1.583
			c0.388,0.515,0.763,1.044,1.147,1.564c0.39,0.526,0.781,1.05,1.153,1.587c0.364,0.524,0.713,1.061,1.074,1.587
			c0.344,0.507,0.69,1.013,1.015,1.533c0.075,0.118,0.145,0.241,0.226,0.355c0.072,0.099,0.147,0.195,0.217,0.294
			c0.177,0.257,0.327,0.533,0.496,0.796c0.132,0.202,0.276,0.401,0.43,0.587c0.206,0.246,0.546,0.404,0.864,0.292
			c0.417-0.147,0.531-0.645,0.566-1.033c0.026-0.289,0.031-0.574,0.031-0.864c0.105,0.145,0.202,0.296,0.294,0.447
			c0.005,0.009,0.009,0.013,0.011,0.02l0.002,0.002c0.002,0.004,0.004,0.009,0.007,0.013c0.002,0.002,0.002,0.004,0.004,0.007
			c0.002,0.004,0.004,0.007,0.007,0.011c0.248,0.43,0.5,0.857,0.722,1.298c0.239,0.467,0.469,0.941,0.682,1.419
			c0.002,0.007,0.004,0.011,0.007,0.018c0.004,0.011,0.009,0.024,0.013,0.035c0.002,0.002,0.004,0.007,0.007,0.011
			c0.002,0.007,0.004,0.011,0.007,0.018c0.18,0.43,0.336,0.864,0.493,1.303c0.173,0.478,0.338,0.954,0.476,1.443
			c0.202,0.728,0.357,1.471,0.465,2.219c0.002,0.018,0.004,0.035,0.009,0.053c0.092,0.667,0.145,1.331,0.171,2.004
			c0.031,0.728,0.053,1.456,0.062,2.186c0.004,1.276-0.011,2.552-0.09,3.826c-0.077,1.221-0.171,2.44-0.274,3.657
			c-0.007,0.086,0.028,0.167,0.085,0.224c-0.02,0.053-0.039,0.108-0.061,0.16c-0.377,0.879-0.789,1.743-1.184,2.616
			c-0.471,1.046-0.956,2.083-1.441,3.125c-2.059,4.429-4.212,8.826-6.609,13.084c-1.166,2.052-2.429,4.059-3.528,6.151
			c-0.553,1.055-1.085,2.12-1.647,3.168c-0.487,0.908-0.958,1.822-1.456,2.721c-0.588,1.024-1.296,1.973-1.93,2.967
			c-0.629,0.993-1.302,1.96-2,2.905c-0.243,0.313-0.517,0.598-0.77,0.903c-0.252,0.305-0.476,0.632-0.71,0.952
			c-0.011,0.015-0.022,0.031-0.035,0.044c-0.112,0.116-0.224,0.23-0.336,0.344c-0.318,0.329-0.64,0.651-0.965,0.971
			c-0.289,0.285-0.581,0.57-0.884,0.844c-0.529,0.46-1.094,0.884-1.673,1.283c-0.015,0.009-0.029,0.02-0.042,0.028
			c-0.004,0.002-0.007,0.004-0.009,0.007c-0.254,0.171-0.513,0.338-0.779,0.498c-0.274,0.164-0.559,0.314-0.844,0.458
			c-0.467,0.232-0.945,0.436-1.43,0.631c-0.27,0.11-0.537,0.226-0.811,0.329c-0.022,0.007-0.044,0.015-0.063,0.024
			c-0.134,0.029-0.268,0.057-0.399,0.088c-0.276,0.031-0.55,0.079-0.822,0.138c-0.002,0-0.004,0-0.007,0
			c-0.004,0-0.009,0.002-0.011,0.002c-0.002,0-0.002,0-0.002,0c-0.007,0.002-0.013,0.004-0.022,0.007
			c-0.013,0.002-0.028,0.004-0.044,0.009c-0.127,0.029-0.252,0.061-0.379,0.097c-0.121,0.035-0.248,0.063-0.368,0.101
			c-0.248,0.072-0.482,0.18-0.724,0.267c-0.007,0.004-0.013,0.007-0.022,0.009c-0.002,0-0.004,0.002-0.007,0.002h-0.002
			c-0.169,0.061-0.331,0.136-0.498,0.197c-0.092,0.031-0.184,0.061-0.274,0.094c-0.07,0.024-0.138,0.046-0.206,0.072
			c-0.011,0-0.024,0.002-0.035,0.004c0,0,0,0-0.002,0c-0.022,0-0.046,0.002-0.068,0.002c-0.07,0-0.129,0.061-0.127,0.132
			c0.002,0.072,0.061,0.127,0.132,0.127c0.033,0,0.064,0,0.092-0.004c0.015,0,0.031-0.002,0.046-0.004
			c0.077,0.004,0.156,0.002,0.232-0.002c0.037,0.007,0.079,0.007,0.116,0.007c0.088,0.029,0.182,0.039,0.274,0.05
			c0.118,0.013,0.239,0.022,0.357,0.022c0.017,0,0.035,0,0.052,0c0.279-0.007,0.555-0.039,0.831-0.083
			c0.224-0.033,0.445-0.072,0.667-0.116c0.061-0.002,0.118-0.002,0.169-0.004c0.333,0,0.664-0.009,0.995-0.024
			c0.831-0.037,1.667-0.081,2.497-0.051c-0.037-0.002-0.074-0.004-0.112-0.007c0.371,0.018,0.739,0.026,1.109,0.042
			c0.261,0.015,0.526,0.035,0.785,0.074c0.173,0.037,0.345,0.074,0.518,0.099c0.193,0.026,0.386,0.035,0.579,0.044
			c0.151,0.004,0.305,0.004,0.456,0.004c0.119,0,0.239,0,0.36,0.004c0.318,0.017,0.634,0.037,0.952,0.033
			c0.285-0.004,0.568-0.013,0.851-0.022c0.491-0.017,0.982-0.037,1.474-0.024c0.188,0.013,0.375,0.031,0.564,0.059
			c0.077,0.015,0.153,0.035,0.228,0.057c0.085,0.031,0.167,0.064,0.248,0.101c0.015,0.007,0.028,0.015,0.044,0.022
			c0.149,0.142,0.292,0.298,0.432,0.449c0.092,0.108,0.178,0.221,0.261,0.336c0.121,0.178,0.237,0.36,0.34,0.546
			c0.121,0.243,0.23,0.489,0.342,0.737c0.132,0.292,0.291,0.572,0.443,0.855c0.108,0.213,0.206,0.428,0.294,0.649
			c0.173,0.493,0.322,0.993,0.441,1.504c0.039,0.193,0.063,0.388,0.083,0.585c0.028,0.373,0.044,0.746,0.033,1.118
			c0,0.013-0.002,0.028-0.004,0.042c-0.053,0.239-0.096,0.482-0.114,0.726c-0.016,0.217-0.024,0.434-0.046,0.649
			c-0.037,0.353-0.094,0.702-0.156,1.05c-0.046,0.228-0.099,0.456-0.167,0.678c-0.031,0.092-0.068,0.182-0.107,0.272
			c-0.064,0.123-0.134,0.246-0.206,0.362c-0.011,0.016-0.022,0.031-0.031,0.044c-0.042,0.044-0.083,0.086-0.127,0.127
			c-0.099,0.079-0.202,0.156-0.307,0.23c-0.121,0.079-0.243,0.156-0.368,0.228c-0.116,0.066-0.228,0.14-0.344,0.208
			c-0.02,0.009-0.042,0.02-0.064,0.029c-0.066,0.02-0.132,0.037-0.198,0.055c-0.103,0.02-0.204,0.035-0.307,0.048
			c-0.579,0.042-1.158,0.059-1.734,0.107c-0.296,0.026-0.594,0.046-0.89,0.072c-0.248,0.022-0.493,0.061-0.739,0.086
			c-0.116,0.009-0.23,0.017-0.344,0.026c-0.197,0.011-0.397,0.015-0.59,0.051c-0.268,0.048-0.533,0.099-0.802,0.127
			c-0.318,0.022-0.638,0.029-0.954,0.068c-0.187,0.022-0.373,0.055-0.559,0.088c-0.044-0.324-0.14-0.645-0.235-0.956
			c-0.105-0.364-0.23-0.726-0.397-1.068c-0.154-0.316-0.289-0.642-0.443-0.96c-0.208-0.427-0.456-0.818-0.712-1.217
			c-0.265-0.421-0.537-0.846-0.868-1.217c-0.355-0.401-0.726-0.778-1.127-1.131c-0.415-0.364-0.833-0.73-1.294-1.037
			c-0.276-0.182-0.55-0.364-0.848-0.511c-0.36-0.18-0.719-0.32-1.103-0.445c-0.526-0.171-1.064-0.307-1.609-0.397
			c-0.096-0.015-0.195-0.028-0.294-0.042c0.075-0.241,0.129-0.48,0.167-0.737c0.053-0.384,0.031-0.752-0.004-1.134
			c-0.031-0.327-0.103-0.651-0.154-0.971c-0.121-0.759-0.232-1.515-0.335-2.276c-0.042-0.3-0.081-0.601-0.118-0.903
			c0.037-0.046,0.075-0.09,0.11-0.136c0.061-0.077,0.11-0.162,0.16-0.246c0.079-0.132,0.16-0.266,0.239-0.397
			c0.162-0.272,0.32-0.546,0.487-0.816c0.147-0.23,0.298-0.456,0.452-0.68c0.213-0.2,0.412-0.412,0.612-0.625
			c0.59-0.632,1.186-1.254,1.772-1.89c0.609-0.651,1.329-1.189,1.938-1.842c0.404-0.432,0.75-0.884,1.079-1.375
			c0.184-0.272,0.357-0.55,0.539-0.822c0.809-1.09,1.719-2.105,2.57-3.162c0.504-0.629,0.971-1.287,1.458-1.93
			c0.52-0.684,1.063-1.353,1.587-2.037c1.151-1.495,2.327-2.973,3.394-4.532c0.272-0.397,0.546-0.796,0.809-1.199
			c0.261-0.399,0.5-0.807,0.737-1.219c0.46-0.805,0.932-1.601,1.364-2.423c0.388-0.745,0.763-1.5,1.1-2.272
			c0.355-0.814,0.651-1.658,0.951-2.494c0.725-2.012,1.385-4.043,1.959-6.101c0.528-1.897,0.989-3.82,1.289-5.764
			c0.136-0.879,0.23-1.761,0.316-2.647c0.074-0.792,0.213-1.572,0.375-2.348c0.14-0.642,0.292-1.281,0.432-1.921
			c0.14-0.631,0.254-1.267,0.384-1.901c0.134-0.603,0.292-1.197,0.434-1.798c0.149-0.634,0.294-1.267,0.443-1.901
			c0.127-0.546,0.289-1.083,0.417-1.629c0.052-0.224,0.099-0.445,0.136-0.671c0.017-0.11,0.026-0.224,0.046-0.333
			c0.059-0.129-0.026-0.281-0.167-0.301c-0.134-0.02-0.259,0.096-0.243,0.232c-0.007,0.02-0.013,0.04-0.02,0.061
			c-0.235,0.616-0.517,1.219-0.796,1.816c-0.386,0.824-0.798,1.636-1.184,2.46c-0.197,0.419-0.382,0.844-0.577,1.263
			c-0.184,0.399-0.386,0.792-0.572,1.188c-0.697,1.489-1.228,3.046-1.976,4.51c-0.478,0.892-0.96,1.778-1.381,2.699
			c-0.417,0.91-0.798,1.837-1.138,2.778c-0.037,0.101-0.074,0.202-0.11,0.303c-0.761,2.107-1.434,4.245-2.186,6.357
			c-0.43,1.182-0.877,2.359-1.335,3.53c-0.596,1.517-1.118,3.061-1.748,4.565c-0.379,0.901-0.785,1.794-1.193,2.682
			c-0.359,0.789-0.717,1.581-1.116,2.351c-0.504,0.952-1.043,1.871-1.66,2.754c-0.327,0.46-0.651,0.923-0.993,1.37
			c-0.358,0.467-0.741,0.905-1.127,1.346c-0.658,0.759-1.305,1.524-1.984,2.265c-0.434,0.469-0.89,0.914-1.373,1.337
			c-0.245,0.195-0.504,0.368-0.763,0.546c-0.397,0.27-0.78,0.548-1.142,0.866c-0.596,0.526-1.101,1.14-1.631,1.734
			c-0.342,0.353-0.722,0.665-1.081,1.002c-0.208,0.195-0.414,0.395-0.623,0.592c-0.022-0.752-0.037-1.509-0.048-2.261
			c-0.026-1.78-0.015-3.559-0.026-5.339c-0.011-1.864-0.147-3.721-0.072-5.585c0.088-1.642,0.189-3.285,0.311-4.927
			c0.064-0.866,0.134-1.734,0.186-2.601c0.051-0.855,0.072-1.712,0.107-2.568c0.07-1.291,0.184-2.583,0.3-3.87
			c0.169-1.908,0.465-3.804,0.719-5.701c0.129-0.963,0.278-1.923,0.408-2.886c0.127-0.952,0.246-1.903,0.384-2.853
			c0.259-1.769,0.559-3.535,0.838-5.302c0.149-0.941,0.283-1.881,0.401-2.826c0.11-0.877,0.2-1.759,0.355-2.629
			c0.017-0.085,0.035-0.171,0.059-0.254c0.007-0.016,0.013-0.033,0.02-0.048c0.004-0.009,0.011-0.02,0.015-0.031
			c0.149-0.316-0.401-0.509-0.489-0.16c-0.009,0.033-0.017,0.068-0.028,0.103c-0.09,0.265-0.175,0.535-0.261,0.805
			c-0.017,0.048-0.035,0.099-0.05,0.149c-0.116,0.353-0.235,0.704-0.351,1.057c-0.259,0.789-0.493,1.581-0.702,2.383
			c-0.458,1.761-0.857,3.539-1.241,5.317c-0.401,1.872-0.789,3.75-1.083,5.644c-0.149,0.971-0.298,1.947-0.438,2.921
			c-0.134,0.916-0.246,1.837-0.379,2.756c-0.132,0.899-0.289,1.798-0.425,2.697c-0.125,0.814-0.248,1.627-0.392,2.436
			c-0.022,0.129-0.048,0.259-0.072,0.388c-0.182,0.952-0.36,1.901-0.509,2.859c-0.136,0.866-0.256,1.736-0.386,2.605
			c-0.259,1.726-0.482,3.46-0.785,5.179c-0.11,0.572-0.235,1.14-0.355,1.71c-0.145,0.695-0.274,1.392-0.401,2.09
			c-0.349,1.934-0.504,3.903-0.59,5.865c-0.074,1.772-0.094,3.541-0.031,5.315c0.064,1.798,0.235,3.592,0.454,5.376
			c0.112,0.908,0.239,1.813,0.379,2.717c0.059,0.39,0.116,0.781,0.189,1.169c0.072,0.408,0.202,0.796,0.384,1.155
			c-0.511,0.099-1.009,0.25-1.487,0.476c-0.697,0.331-1.335,0.733-1.912,1.246c-0.281,0.25-0.546,0.515-0.816,0.781
			c-0.221,0.221-0.414,0.467-0.614,0.708c-0.116,0.129-0.241,0.252-0.37,0.373c-0.235,0.215-0.467,0.432-0.704,0.645
			c-0.105,0.094-0.208,0.189-0.311,0.283c-0.002,0-0.005,0.002-0.007,0.004c-0.007,0.004-0.011,0.011-0.018,0.015
			c-0.342,0.305-0.699,0.594-1.063,0.875c-0.305,0.237-0.605,0.48-0.921,0.706c-0.588,0.403-1.199,0.77-1.831,1.103
			c-0.007,0.004-0.013,0.007-0.018,0.009c-0.261,0.134-0.524,0.257-0.783,0.39c-0.134,0.068-0.355,0.154-0.366,0.329
			c-0.016,0.213,0.188,0.263,0.355,0.25c0.004,0,0.007,0,0.011,0c0.224-0.024,0.441-0.094,0.653-0.171
			c0.333-0.123,0.66-0.261,0.987-0.401c0.623-0.265,1.246-0.529,1.875-0.772c0.651-0.254,1.287-0.544,1.934-0.811
			c0.329-0.138,0.658-0.281,0.987-0.423c0.274-0.121,0.542-0.248,0.818-0.357c0.188-0.061,0.379-0.105,0.568-0.162
			c0.189-0.057,0.373-0.127,0.557-0.197c0.612-0.213,1.239-0.384,1.853-0.594c0.638-0.219,1.298-0.406,1.956-0.561
			c0.167-0.033,0.335-0.059,0.504-0.081c0.177-0.011,0.355-0.013,0.535-0.011c0.143,0.011,0.285,0.028,0.43,0.048
			c0.079,0.018,0.16,0.037,0.237,0.059c0.469,0.165,0.939,0.351,1.39,0.557c0.169,0.088,0.333,0.182,0.493,0.287
			c-0.039-0.026-0.081-0.055-0.121-0.081c0.342,0.222,0.688,0.436,1.03,0.658c0.167,0.112,0.329,0.228,0.485,0.351
			c0.136,0.125,0.265,0.252,0.39,0.386c0.327,0.377,0.629,0.778,0.919,1.186c0.066,0.101,0.127,0.204,0.186,0.309
			c0.131,0.261,0.263,0.524,0.397,0.785c-0.011-0.02-0.022-0.039-0.033-0.061c0.042,0.086,0.083,0.171,0.121,0.257
			c0.057,0.178,0.105,0.353,0.16,0.528c0.07,0.219,0.143,0.438,0.202,0.662c0.055,0.213,0.092,0.432,0.167,0.64
			c0.077,0.219,0.178,0.425,0.265,0.638c0.037,0.121,0.07,0.241,0.101,0.362c0.002,0.002,0.002,0.004,0.002,0.007
			c0,0.002,0,0.007-0.002,0.009c-0.022,0.103-0.051,0.204-0.079,0.302c-0.077,0.226-0.16,0.449-0.254,0.667
			c-0.042,0.075-0.083,0.147-0.127,0.219c-0.061,0.088-0.125,0.176-0.191,0.261c-0.087,0.094-0.18,0.189-0.274,0.278
			c-0.18,0.151-0.371,0.289-0.561,0.423c-0.224,0.153-0.452,0.3-0.686,0.432c-0.138,0.066-0.276,0.127-0.419,0.184
			c-0.765,0.261-1.541,0.485-2.32,0.704c-0.792,0.226-1.59,0.432-2.395,0.616c-0.013,0.002-0.026,0.007-0.039,0.009
			c-0.55,0.125-1.101,0.261-1.651,0.388c-0.588,0.129-1.186,0.257-1.785,0.325c-0.441,0.028-0.884,0.033-1.326,0.017
			c-0.452-0.028-0.903-0.074-1.357-0.092c-0.425-0.018-0.851-0.007-1.274-0.022c-0.502-0.029-1-0.068-1.498-0.134
			c-0.482-0.068-0.963-0.153-1.443-0.241c-0.612-0.118-1.213-0.27-1.82-0.401c-0.353-0.077-0.706-0.147-1.063-0.195
			c-0.246-0.035-0.493-0.064-0.737-0.103c-0.327-0.068-0.649-0.149-0.978-0.215c-0.336-0.057-0.667-0.099-1.006-0.121
			c-0.254-0.018-0.504-0.048-0.752-0.09c-0.154-0.028-0.303-0.064-0.454-0.108c-0.07-0.026-0.14-0.055-0.208-0.085
			c-0.042-0.022-0.084-0.044-0.123-0.066c-0.011-0.009-0.024-0.018-0.035-0.026c-0.002-0.002-0.007-0.007-0.009-0.009
			c-0.081-0.096-0.156-0.195-0.23-0.294c-0.024-0.04-0.048-0.079-0.07-0.121c-0.011-0.02-0.02-0.042-0.028-0.061
			c-0.007-0.024-0.013-0.046-0.02-0.07c-0.013-0.081-0.024-0.16-0.033-0.241c-0.022-0.318-0.035-0.638-0.026-0.954
			c0.02-0.309,0.042-0.616,0.059-0.927c0.022-0.388,0.09-0.781,0.16-1.167c0-0.004,0-0.007,0.002-0.009
			c0.013-0.066,0.028-0.132,0.046-0.195c0.077-0.208,0.178-0.406,0.256-0.612c0.075-0.197,0.143-0.399,0.228-0.592
			c0.118-0.224,0.252-0.443,0.333-0.684c0.059-0.18,0.119-0.357,0.162-0.542c0.013-0.07,0.028-0.138,0.044-0.206
			c0.004-0.009,0.009-0.018,0.013-0.028c0.123-0.254,0.234-0.504,0.309-0.783c0.068-0.248,0.096-0.502,0.136-0.757
			c0.064-0.32,0.132-0.642,0.149-0.969c0.031-0.533,0.02-1.055-0.057-1.585c-0.138-0.965-0.441-1.905-0.805-2.806
			c-0.528-1.318-1.21-2.572-2.006-3.747c-0.524-0.774-1.074-1.528-1.649-2.265c-0.509-0.653-1.033-1.298-1.603-1.903
			c-1.175-1.245-2.535-2.294-3.697-3.552c-0.509-0.568-1.002-1.149-1.452-1.763c-0.476-0.651-0.947-1.305-1.41-1.962
			c-0.748-1.094-1.408-2.239-2.118-3.357c-0.397-0.625-0.794-1.25-1.169-1.89c-0.318-0.537-0.647-1.07-0.94-1.618
			c-0.255-0.498-0.5-1.002-0.706-1.519c-0.232-0.686-0.397-1.392-0.557-2.099c-0.307-1.408-0.544-2.824-0.682-4.258
			c-0.061-0.8-0.101-1.601-0.107-2.403c-0.009-0.917,0.015-1.831,0.011-2.745c-0.004-0.949-0.055-1.899-0.081-2.85
			c-0.026-0.934-0.118-1.864-0.156-2.798c-0.037-0.976-0.103-1.947-0.173-2.921c-0.066-0.932-0.077-1.866-0.156-2.8
			c-0.083-0.98-0.173-1.962-0.296-2.938c-0.112-0.884-0.226-1.767-0.384-2.644c-0.077-0.428-0.162-0.855-0.233-1.287
			c-0.061-0.375-0.105-0.752-0.16-1.129c-0.125-0.866-0.239-1.734-0.382-2.598c-0.285-1.75-0.647-3.486-0.84-5.249
			c-0.154-1.414-0.377-2.817-0.605-4.221c-0.101-0.607-0.235-1.21-0.331-1.818c-0.097-0.614-0.211-1.224-0.32-1.835
			c-0.031-0.169-0.173-0.254-0.313-0.254c-0.143,0-0.283,0.088-0.298,0.265c-0.039,0.406-0.077,0.807-0.09,1.215
			c-0.011,0.34-0.024,0.682-0.039,1.022c0,0.009,0,0.015,0,0.024c-0.002,0.018-0.002,0.035-0.002,0.053
			c-0.013,0.243-0.02,0.487-0.028,0.73c0,0.002,0,0.004,0,0.004c-0.004,0.055-0.007,0.107-0.009,0.16
			c-0.022,0.465-0.026,0.928-0.035,1.392c-0.007,0.482-0.018,0.967-0.002,1.449c0.028,0.761,0.057,1.519,0.105,2.28
			c0.057,0.871,0.024,1.739,0.044,2.609c0.011,0.447,0,0.892-0.002,1.338c0,0.478,0.02,0.954,0.035,1.432
			c0.026,0.844,0.072,1.691,0.114,2.535c0.02,0.388,0.042,0.776,0.042,1.167c-0.002,0.447-0.011,0.897-0.007,1.344
			c0.004,0.884,0.02,1.765,0.042,2.649c0.02,0.91,0.035,1.822,0.055,2.732c0.017,0.934,0.059,1.864,0.02,2.796
			c-0.033,0.728-0.064,1.456-0.118,2.18c-0.956-1.34-2.059-2.568-3.403-3.535c-0.752-0.542-1.557-1.035-2.416-1.388
			c-0.443-0.18-0.899-0.338-1.364-0.454c-0.401-0.101-0.807-0.18-1.212-0.261c-0.829-0.171-1.647-0.324-2.497-0.351
			c-0.903-0.028-1.807,0.068-2.69,0.254c-0.877,0.186-1.763,0.432-2.601,0.752c-0.905,0.344-1.78,0.8-2.611,1.3
			c-0.743,0.447-1.454,0.96-2.168,1.456c-0.761,0.524-1.467,1.109-2.158,1.723c-0.7,0.621-1.37,1.27-2,1.965
			c-0.642,0.713-1.307,1.408-1.947,2.124c-0.32,0.36-0.634,0.726-0.952,1.088c-0.292,0.333-0.588,0.664-0.855,1.017
			c-0.252,0.335-0.478,0.689-0.697,1.046c-0.118,0.191-0.324,0.46-0.175,0.689c0.064,0.096,0.18,0.169,0.3,0.145
			c0.18-0.035,0.289-0.162,0.403-0.296c0.18-0.213,0.36-0.425,0.544-0.636c0.548-0.621,1.094-1.248,1.677-1.837
			c0.62-0.627,1.256-1.241,1.916-1.827c0.52-0.447,1.081-0.838,1.631-1.248c0.526-0.39,1.05-0.787,1.592-1.158
			c0.836-0.555,1.708-1.057,2.603-1.511c0.923-0.449,1.888-0.84,2.853-1.188c0.585-0.197,1.177-0.388,1.78-0.522
			c0.346-0.064,0.691-0.112,1.042-0.14c0.406-0.022,0.809-0.031,1.215-0.011c0.561,0.053,1.123,0.142,1.677,0.25
			c0.313,0.066,0.623,0.147,0.928,0.243c0.182,0.068,0.357,0.145,0.533,0.228c0.105,0.055,0.206,0.114,0.309,0.178
			c0.224,0.164,0.432,0.349,0.647,0.524c0.21,0.173,0.417,0.349,0.623,0.529c0.596,0.533,1.164,1.098,1.702,1.693
			c0.52,0.605,1.004,1.234,1.458,1.89c0.364,0.555,0.686,1.134,1.046,1.691c0.232,0.357,0.474,0.708,0.739,1.042
			c0.178,0.221,0.347,0.447,0.507,0.68c0.261,0.397,0.511,0.803,0.787,1.191c0.206,0.287,0.441,0.546,0.673,0.807
			c0,0.018,0.002,0.037,0.002,0.053c0.011,1.009,0.053,2.015,0.156,3.019c0.101,0.982,0.263,1.947,0.48,2.91
			c0.213,0.949,0.507,1.868,0.866,2.774c0.16,0.401,0.325,0.807,0.518,1.193c0.18,0.36,0.375,0.706,0.564,1.059
			c0.153,0.309,0.294,0.627,0.445,0.941c0.149,0.309,0.316,0.614,0.469,0.923c0.167,0.338,0.318,0.682,0.489,1.02
			c0.215,0.423,0.436,0.842,0.656,1.263c0.412,0.796,0.831,1.59,1.303,2.355c0.469,0.759,0.998,1.476,1.518,2.199
			c-0.171-0.085-0.347-0.164-0.526-0.232c-0.327-0.123-0.66-0.228-1-0.309c-0.353-0.083-0.711-0.138-1.068-0.195
			c-0.432-0.07-0.862-0.114-1.296-0.149c-0.248-0.022-0.495-0.04-0.743-0.044c-0.241-0.007-0.48,0.004-0.719,0.015
			c-0.506,0.026-1.011,0.059-1.517,0.07c-0.537,0.013-1.072,0.024-1.609,0.007c-0.653-0.026-1.302-0.092-1.947-0.197
			c-0.557-0.099-1.107-0.224-1.649-0.386c-0.36-0.114-0.71-0.25-1.064-0.382c-0.384-0.145-0.765-0.294-1.14-0.458
			c-0.007-0.002-0.011-0.004-0.018-0.007c-0.509-0.234-1.004-0.502-1.5-0.756c-0.522-0.27-1.039-0.553-1.539-0.857
			c-0.002,0-0.002-0.002-0.004-0.002c-0.296-0.186-0.581-0.393-0.855-0.61c-0.026-0.022-0.053-0.042-0.079-0.061
			c-0.204-0.169-0.399-0.349-0.594-0.524c-0.206-0.184-0.417-0.364-0.616-0.553c-0.421-0.401-0.809-0.84-1.241-1.232
			c-0.171-0.158-0.344-0.32-0.535-0.454c-0.162-0.112-0.34-0.204-0.522-0.281c-0.318-0.134-0.678-0.197-1.02-0.166
			c-0.325,0.028-0.651,0.066-0.971,0.132c-0.351,0.07-0.697,0.156-1.046,0.237c-0.066,0.015-0.134,0.029-0.204,0.044
			c0.013-0.011,0.026-0.022,0.04-0.033c0.112-0.096,0.226-0.193,0.338-0.289c0.237-0.208,0.463-0.43,0.662-0.675
			c0.298-0.377,0.537-0.851,0.465-1.346c-0.04-0.272-0.175-0.517-0.368-0.713c-0.202-0.202-0.487-0.3-0.761-0.353
			c-0.199-0.033-0.397-0.048-0.599-0.055c-0.798-0.015-1.59,0.162-2.357,0.371c-0.504,0.134-1.002,0.292-1.487,0.48
			c-0.43,0.167-0.855,0.351-1.276,0.537c-0.881,0.388-1.756,0.813-2.664,1.155c-0.375,0.138-0.754,0.265-1.134,0.392
			c-0.401,0.134-0.807,0.241-1.221,0.338c-0.21,0.046-0.421,0.088-0.636,0.112c-0.294,0.022-0.588,0.031-0.879,0.024
			c-0.191-0.013-0.382-0.039-0.57-0.066c-0.103-0.02-0.204-0.044-0.305-0.07c-0.048-0.018-0.094-0.035-0.143-0.053
			c-0.033-0.015-0.064-0.031-0.097-0.048c-0.017-0.013-0.037-0.026-0.055-0.039c-0.039-0.035-0.077-0.07-0.114-0.108
			c-0.059-0.063-0.116-0.129-0.166-0.195c-0.011-0.017-0.022-0.035-0.033-0.05c-0.022-0.046-0.042-0.09-0.061-0.136
			c-0.013-0.039-0.024-0.081-0.035-0.121c-0.055-0.25-0.103-0.504-0.134-0.757c-0.002-0.009-0.002-0.02-0.002-0.029
			c-0.002-0.011-0.002-0.022-0.004-0.033c0-0.002,0-0.004,0-0.007c0-0.002,0-0.002,0-0.002c-0.029-0.414-0.02-0.825-0.004-1.239
			c0,0.002-0.002,0.007-0.002,0.009c0.007-0.151,0.011-0.305,0.013-0.456c0,0.013,0,0.026,0,0.039
			c0.009-0.254,0.018-0.509,0.037-0.761c0.013-0.151,0.024-0.298,0.018-0.45c0.002-0.007,0.004-0.011,0.004-0.017
			c0.002-0.005,0.002-0.007,0.004-0.011c0.046-0.068,0.033-0.167-0.05-0.211c-0.086-0.046-0.18,0.007-0.204,0.09
			c-0.011,0.026-0.018,0.053-0.024,0.079c0,0.002,0,0.002,0,0.002c-0.002,0.002-0.002,0.002-0.002,0.004
			c-0.108,0.203-0.175,0.423-0.243,0.643c-0.087,0.278-0.167,0.561-0.23,0.846c-0.063,0.274-0.112,0.55-0.16,0.829
			c-0.105,0.605-0.18,1.228-0.068,1.84c0.064,0.342,0.193,0.662,0.373,0.96c0.18,0.302,0.439,0.535,0.752,0.693
			c0.287,0.145,0.603,0.222,0.919,0.272c0.292,0.044,0.583,0.064,0.879,0.055c0.294-0.009,0.592-0.022,0.884-0.059
			c0.309-0.042,0.614-0.11,0.917-0.182c0.283-0.068,0.566-0.14,0.844-0.228c0.302-0.094,0.601-0.204,0.897-0.318
			c0.493-0.186,0.987-0.377,1.476-0.579c0.447-0.186,0.89-0.388,1.333-0.59c0.421-0.191,0.84-0.395,1.265-0.579
			c0.408-0.178,0.818-0.349,1.232-0.507c0.388-0.143,0.778-0.27,1.18-0.366c0.189-0.039,0.382-0.074,0.575-0.096
			c-0.013,0-0.024,0.002-0.037,0.002c0.013-0.002,0.029-0.002,0.042-0.004c0.002,0,0.007,0,0.009,0
			c0.006-0.002,0.013-0.002,0.02-0.002c0.211-0.015,0.423-0.015,0.638-0.007c0.105,0.007,0.213,0.016,0.318,0.031
			c0.044,0.009,0.085,0.018,0.125,0.028c-0.017,0.037-0.035,0.072-0.057,0.108c-0.031,0.05-0.068,0.099-0.103,0.145
			c-0.013,0.017-0.026,0.033-0.039,0.048c-0.164,0.197-0.34,0.384-0.524,0.559c-0.156,0.138-0.322,0.261-0.454,0.425
			c-0.015,0.017-0.029,0.035-0.042,0.053l-0.002,0.002c-0.02,0.024-0.037,0.044-0.059,0.066c-0.173,0.16-0.362,0.301-0.533,0.463
			c-0.116,0.116-0.224,0.239-0.274,0.395c-0.101,0.3-0.013,0.651,0.287,0.805c0.145,0.072,0.298,0.092,0.458,0.099
			c0.153,0.009,0.303,0.004,0.458-0.009c0.482-0.05,0.954-0.154,1.43-0.243c0.259-0.05,0.52-0.099,0.781-0.147
			c0.237-0.042,0.471-0.092,0.708-0.114c0.004,0,0.009,0,0.013,0c0.098-0.007,0.197-0.011,0.296-0.007
			c0.037,0.002,0.075,0.007,0.112,0.011c0.015,0.004,0.031,0.009,0.046,0.013c0.044,0.013,0.088,0.031,0.129,0.048
			c0.057,0.028,0.112,0.057,0.167,0.088c0.072,0.044,0.14,0.088,0.204,0.138c0.77,0.642,1.445,1.392,2.151,2.101
			c0.743,0.745,1.577,1.414,2.436,2.019c0.456,0.32,0.936,0.61,1.425,0.877c0.489,0.265,0.985,0.526,1.493,0.757
			c0.607,0.27,1.23,0.509,1.879,0.66c0.59,0.14,1.188,0.261,1.785,0.362c0.007,0,0.011,0.002,0.018,0.002
			c0.022,0.004,0.044,0.007,0.064,0.011c0.002,0,0.004,0,0.007,0c0.002,0,0.002,0.002,0.002,0.002
			c0.824,0.136,1.66,0.226,2.495,0.257c0.406,0.015,0.809,0.022,1.212,0.002c0.379-0.018,0.759-0.053,1.138-0.079
			c0.379-0.026,0.765-0.05,1.142-0.101c0.325-0.042,0.647-0.099,0.971-0.132c0.355-0.031,0.713-0.046,1.066-0.037
			c0.39,0.02,0.776,0.061,1.16,0.127c0,0,0,0,0,0.002c0.257,0.044,0.515,0.099,0.765,0.173c0.002,0,0.004,0,0.007,0.002
			c0.002,0,0.002,0,0.004,0c0.263,0.081,0.52,0.176,0.77,0.285c0.228,0.103,0.438,0.239,0.669,0.34
			c0.033,0.015,0.07,0.022,0.105,0.022c0.007,0,0.013,0,0.02,0c0.283,0.384,0.568,0.765,0.866,1.138
			c0.599,0.75,1.186,1.511,1.781,2.265c0.568,0.721,1.103,1.467,1.647,2.206c0.482,0.651,1.015,1.263,1.53,1.888
			c0.969,1.173,1.927,2.35,2.807,3.596c0.441,0.649,0.849,1.318,1.219,2.011c-0.38,0.011-0.757,0.011-1.136,0.011
			c-0.452,0-0.901-0.02-1.351-0.031c-0.353-0.009-0.704-0.015-1.057-0.013c-0.73-0.079-1.463-0.129-2.197-0.149
			c-0.791-0.022-1.577,0.009-2.364,0.059c-0.673,0.044-1.346,0.079-2.017,0.167c-0.669,0.09-1.326,0.235-1.982,0.39
			c-1.127,0.268-2.21,0.68-3.339,0.93c-1.533,0.3-3.087,0.491-4.646,0.603c-0.741,0.048-1.486,0.083-2.232,0.074
			c-0.914-0.009-1.826-0.068-2.736-0.129c-1.414-0.096-2.82-0.21-4.212-0.476c-0.897-0.191-1.794-0.386-2.686-0.594
			c-0.925-0.215-1.846-0.458-2.772-0.673c-1.028-0.237-2.052-0.465-3.061-0.765c-0.818-0.243-1.647-0.46-2.456-0.726
			c-0.445-0.169-0.877-0.362-1.305-0.57c-0.579-0.294-1.156-0.596-1.704-0.945c-0.392-0.281-0.767-0.577-1.136-0.89
			c-0.526-0.474-1.028-0.974-1.504-1.495c-0.351-0.412-0.675-0.84-0.984-1.283c-0.25-0.39-0.476-0.796-0.691-1.208
			c-0.276-0.59-0.513-1.191-0.73-1.805c-0.333-0.98-0.651-1.967-0.93-2.965c-0.289-1.033-0.555-2.07-0.822-3.109
			c-0.496-1.932-0.974-3.866-1.377-5.819c-0.096-0.471-0.193-0.941-0.289-1.412c-0.107-0.526-0.221-1.052-0.331-1.581
			c-0.182-0.943-0.307-1.888-0.377-2.844c-0.081-1.338-0.072-2.671,0.004-4.008c0.077-1.046,0.191-2.09,0.311-3.133
			c0.112-0.963,0.248-1.923,0.432-2.875c0.186-0.853,0.416-1.695,0.655-2.533c0.217-0.77,0.445-1.537,0.7-2.296
			c0.399-1.125,0.882-2.208,1.414-3.276c0.408-0.803,0.833-1.594,1.309-2.362c0.454-0.734,0.939-1.449,1.421-2.166
			c1.175-1.734,2.37-3.453,3.622-5.133c0.642-0.86,1.294-1.712,1.969-2.548c0.618-0.767,1.267-1.513,1.919-2.256
			c0.129-0.147,0.261-0.294,0.39-0.441c1.583-1.778,3.217-3.508,4.822-5.269c1.64-1.8,3.186-3.688,4.789-5.521
			c0.353-0.397,0.708-0.789,1.066-1.182c-0.011,0.07-0.02,0.138-0.029,0.208v0.002c-0.037,0.294-0.048,0.592-0.046,0.89
			c0.009,0.936,0.096,1.872,0.226,2.8c0.07,0.495,0.149,0.989,0.241,1.48c0.081,0.443,0.167,0.888,0.235,1.333
			c0,0.013,0.002,0.026,0.004,0.039c0.007,0.042,0.013,0.083,0.018,0.123c0.16,1.12,0.257,2.245,0.274,3.372
			c0,0.772-0.035,1.546-0.125,2.313c-0.105,0.776-0.261,1.546-0.415,2.313c-0.136,0.689-0.294,1.377-0.469,2.057v0.002
			c-0.002,0.004-0.002,0.011-0.004,0.015c-0.004,0.018-0.009,0.037-0.013,0.055c-0.094,0.347-0.188,0.697-0.313,1.033
			c-0.02-0.096-0.04-0.193-0.075-0.285c-0.07-0.191-0.143-0.371-0.252-0.544c-0.101-0.158-0.279-0.267-0.471-0.246
			c-0.154,0.018-0.272,0.101-0.382,0.202c-0.186,0.171-0.342,0.375-0.518,0.557c-0.217,0.215-0.445,0.421-0.684,0.614
			c0.009-0.007,0.018-0.013,0.026-0.018c-0.017,0.013-0.035,0.026-0.052,0.039c-0.018,0.013-0.035,0.026-0.051,0.04
			c-0.002,0.002-0.002,0.004-0.004,0.004c-0.246,0.184-0.502,0.351-0.763,0.509c-0.243,0.142-0.504,0.261-0.761,0.375
			c-0.18,0.077-0.364,0.136-0.55,0.191c-0.373,0.103-0.741,0.193-1.123,0.257c-0.327,0.05-0.651,0.11-0.978,0.16
			c-0.005,0-0.007,0-0.009,0.002h-0.002c-0.001,0-0.002,0-0.003,0c0.001,0,0.002,0,0.003,0c0,0,0,0,0,0c-0.001,0-0.002,0-0.003,0
			c-0.003,0-0.005,0-0.008,0c-0.542,0.077-1.09,0.127-1.633,0.175c-0.583,0.051-1.167,0.108-1.75,0.171
			c-0.605,0.064-1.206,0.158-1.807,0.261c-0.531,0.092-1.061,0.189-1.588,0.3c-0.5,0.105-0.998,0.215-1.491,0.344
			c-0.48,0.125-0.96,0.259-1.423,0.432c-0.175,0.066-0.272,0.261-0.208,0.441c0.051,0.14,0.184,0.224,0.327,0.224
			c0.037,0,0.074-0.007,0.114-0.017c0.07-0.024,0.145-0.046,0.217-0.07c0.502-0.143,1.017-0.248,1.535-0.34
			c0.524-0.094,1.053-0.186,1.581-0.268c-0.002,0.002-0.002,0.002-0.002,0.002c0.287-0.042,0.574-0.081,0.862-0.116
			c1.144-0.136,2.298-0.208,3.447-0.285c1.024-0.068,2.055-0.114,3.063-0.307c0.272-0.053,0.548-0.103,0.818-0.175
			c0.259-0.068,0.507-0.167,0.756-0.263c0.257-0.096,0.511-0.2,0.759-0.32c0.259-0.127,0.502-0.283,0.737-0.449
			c0.478-0.342,0.919-0.748,1.309-1.186c0.009-0.013,0.02-0.024,0.028-0.035c0.002,0.004,0.002,0.011,0.005,0.018
			c0-0.002-0.002-0.002-0.002-0.002c0.013,0.09,0.022,0.18,0.039,0.27c0.018,0.103,0.048,0.2,0.077,0.3
			c-0.002-0.009-0.007-0.018-0.009-0.024c0.004,0.013,0.009,0.029,0.013,0.044c0,0.002,0.002,0.004,0.002,0.004
			c0.002,0.007,0.002,0.015,0.004,0.022c0.055,0.202,0.099,0.406,0.246,0.563c0.239,0.25,0.616,0.333,0.928,0.164
			c0.346-0.186,0.544-0.55,0.684-0.901c0.36-0.897,0.651-1.824,0.897-2.758c0.289-1.086,0.524-2.188,0.669-3.302
			c0.074-0.581,0.092-1.169,0.107-1.754c0.013-0.557,0.031-1.114,0.007-1.669c-0.057-1.221-0.215-2.436-0.419-3.64
			c-0.096-0.566-0.208-1.129-0.329-1.691c-0.116-0.542-0.235-1.087-0.318-1.633c-0.004-0.028-0.009-0.061-0.013-0.088
			c-0.002-0.013-0.004-0.022-0.007-0.035c-0.002-0.009-0.002-0.02-0.005-0.029c-0.066-0.489-0.125-0.98-0.14-1.476
			c0-0.513,0.031-1.024,0.088-1.53c0.002-0.015,0.002-0.029,0.004-0.044c0,0.007,0,0.013,0,0.018
			c0.024-0.189,0.05-0.375,0.083-0.564c0.3-0.34,0.596-0.684,0.89-1.03c1.039-1.234,2.035-2.5,2.995-3.796
			c1.414-1.903,2.723-3.888,3.934-5.929c0.603-1.013,1.153-2.055,1.71-3.094c0.612-1.136,1.223-2.267,1.794-3.423
			c1.035-2.092,2.048-4.21,2.822-6.413c0.208-0.597,0.419-1.197,0.59-1.807c0.169-0.601,0.301-1.21,0.415-1.824
			c0.202-1.085,0.318-2.175,0.364-3.278c0.048-1.199-0.004-2.41-0.156-3.6c-0.158-1.235-0.397-2.467-0.748-3.662
			c-0.329-1.116-0.702-2.239-1.307-3.241c-0.208-0.346-0.394-0.708-0.616-1.05c0.388,0.064,0.776,0.123,1.167,0.173
			c0.576,0.079,1.158,0.154,1.726,0.281c0.757,0.193,1.506,0.423,2.254,0.658c0.664,0.208,1.327,0.432,1.978,0.68
			c1.175,0.46,2.32,1.017,3.526,1.388c-0.009-0.004-0.015-0.009-0.024-0.013c-0.002-0.002-0.002-0.002-0.005-0.004
			c0.044,0.029,0.096,0.042,0.149,0.042c0.101,0,0.206-0.057,0.243-0.175c0.04-0.129-0.031-0.252-0.134-0.307
			c-0.59-0.386-1.182-0.765-1.794-1.116c-0.846-0.487-1.684-0.978-2.513-1.491c-0.923-0.575-1.84-1.154-2.769-1.712
			c-0.467-0.281-0.906-0.601-1.368-0.886c-0.489-0.303-0.987-0.585-1.498-0.846c-2.175-1.112-4.517-1.866-6.883-2.449
			c-2.361-0.581-4.747-1.037-7.146-1.436c-4.688-0.783-9.411-1.423-14.038-2.535c-1.331-0.333-2.649-0.715-3.936-1.197
			c-0.978-0.386-1.936-0.818-2.868-1.307c-0.66-0.368-1.3-0.774-1.921-1.208c-1.105-0.814-2.177-1.686-3.188-2.614
			c-0.509-0.489-0.993-1-1.449-1.539c-0.544-0.664-1.072-1.34-1.581-2.028c-0.515-0.702-0.993-1.432-1.46-2.166
			c-0.68-1.094-1.289-2.221-1.833-3.385c-0.518-1.16-0.974-2.34-1.355-3.55c-0.412-1.416-0.724-2.853-0.967-4.306
			c-0.237-1.517-0.408-3.039-0.46-4.574c-0.013-0.702-0.005-1.403,0.055-2.103c0.193-1.57,0.467-3.116,0.829-4.655
			c0.314-1.267,0.662-2.522,1.061-3.765c0.377-1.18,0.8-2.346,1.232-3.51c1.537-4.14,3.122-8.269,4.455-12.481
			c0.353-1.114,0.684-2.236,0.965-3.372c0.327-1.329,0.572-2.673,0.796-4.023c0.195-1.177,0.388-2.353,0.542-3.535
			c0.145-1.127,0.281-2.256,0.404-3.388c0.162-1.476,0.357-2.938,0.627-4.396c0.256-1.388,0.524-2.776,0.848-4.151
			c0.388-1.553,0.794-3.107,1.342-4.613c0.447-1.116,0.96-2.208,1.52-3.274c0.739-1.335,1.546-2.633,2.419-3.887
			c0.515-0.697,1.068-1.362,1.651-2.004c0.962-1.017,1.969-1.995,3.032-2.91c1.491-1.208,3.07-2.309,4.69-3.335
			c1.945-1.188,3.964-2.241,6.032-3.197c2.412-1.075,4.914-1.958,7.435-2.739c2.318-0.688,4.655-1.302,7.017-1.829
			c2.304-0.515,4.627-0.949,6.957-1.329c0.862-0.134,1.723-0.261,2.587-0.379c2.296-0.316,4.598-0.573,6.905-0.794
			c2.436-0.237,4.885-0.397,7.332-0.46c1.794-0.04,3.585-0.079,5.379-0.068c1.25,0.009,2.499,0.007,3.747,0.059
			c1.234,0.053,2.465,0.158,3.695,0.226c2.318,0.132,4.635,0.287,6.942,0.537c0.831,0.088,1.664,0.167,2.495,0.237
			c0.406,0.033,0.811,0.077,1.217,0.094c0.419,0.017,0.837,0.026,1.254,0.039c0.77,0.022,1.539,0.057,2.307,0.079
			c0.978,0.026,1.949,0.011,2.925-0.015h0.002c0.022,0,0.044-0.002,0.063-0.002c0.005,0,0.007,0,0.011,0
			c0.625-0.018,1.252-0.037,1.875-0.07c0.296-0.015,0.59-0.024,0.884-0.04c0.265-0.015,0.522-0.044,0.783-0.081
			c0.081-0.013,0.164-0.024,0.246-0.035c-0.116,0.105-0.233,0.215-0.344,0.327c-0.254,0.257-0.496,0.524-0.739,0.792
			c-0.452,0.495-0.901,0.991-1.331,1.506c-0.23,0.265-0.476,0.513-0.734,0.752c-0.211,0.186-0.445,0.355-0.649,0.55
			c-0.098,0.046-0.166,0.151-0.129,0.281c0.035,0.116,0.147,0.175,0.254,0.169c0.184,0.033,0.39-0.024,0.566-0.066
			c0.357-0.09,0.699-0.221,1.042-0.349c0.557-0.198,1.123-0.358,1.66-0.61c0.64-0.301,1.292-0.603,1.901-0.967
			c0.573-0.346,1.129-0.715,1.702-1.061c0.557-0.338,1.096-0.691,1.629-1.061c0.882-0.612,1.776-1.208,2.686-1.778
			c0.882-0.555,1.765-1.127,2.686-1.618c0.456-0.228,0.923-0.43,1.399-0.614c0.522-0.189,1.048-0.366,1.587-0.5
			c0.833-0.173,1.689-0.274,2.537-0.36c0.967-0.077,1.943-0.079,2.912-0.042c1.083,0.057,2.175,0.147,3.249,0.322
			c0.897,0.173,1.783,0.412,2.655,0.684c1.938,0.645,3.824,1.456,5.67,2.329c1.778,0.853,3.517,1.785,5.242,2.743
			c1.721,0.956,3.432,1.93,5.116,2.951c1.526,0.925,3.043,1.868,4.559,2.816c1.592,0.995,3.184,2.002,4.828,2.91
			c1.612,0.89,3.261,1.719,4.905,2.55c1.671,0.844,3.339,1.691,4.984,2.585c1.537,0.835,3.068,1.684,4.546,2.622
			c0.708,0.469,1.386,0.978,2.039,1.522c0.542,0.48,1.059,0.98,1.552,1.509c0.498,0.566,0.971,1.144,1.414,1.752
			c0.62,0.914,1.186,1.87,1.71,2.844c0.36,0.708,0.689,1.434,0.976,2.175c0.167,0.482,0.305,0.976,0.428,1.473
			c0.14,0.673,0.246,1.353,0.316,2.039c0.088,1.068,0.116,2.133,0.075,3.204C355.823,192.075,355.703,194.286,355.334,196.465z"/>
		<path d="M285.958,350.081c-0.009,0.026-0.02,0.052-0.03,0.078c0,0.001-0.001,0.002-0.001,0.003
			C285.936,350.136,285.947,350.11,285.958,350.081z"/>
		<path d="M190.518,362.286c0.002-0.008,0.006-0.016,0.009-0.024c0.001-0.002,0.001-0.005,0.002-0.007
			C190.525,362.266,190.522,362.277,190.518,362.286z"/>
		<path d="M240.919,230.436c-0.013,0-0.024-0.002-0.035-0.002c-0.031-0.005-0.059-0.009-0.092-0.011
			c-0.561-0.07-1.131-0.107-1.697-0.151c-0.636-0.05-1.27-0.132-1.905-0.178c-0.64-0.048-1.281-0.059-1.923-0.099
			c-0.634-0.042-1.267-0.09-1.899-0.164c-0.263-0.031-0.526-0.064-0.79-0.094c-0.636-0.081-1.258-0.212-1.883-0.344
			c-0.623-0.129-1.241-0.261-1.857-0.414c-0.544-0.145-1.088-0.305-1.616-0.509c-0.226-0.092-0.445-0.195-0.662-0.311
			c-0.397-0.23-0.778-0.493-1.149-0.765c-0.123-0.094-0.243-0.193-0.36-0.296c-0.094-0.096-0.184-0.197-0.27-0.298
			c-0.079-0.092-0.162-0.178-0.241-0.268c-0.02-0.028-0.037-0.055-0.057-0.083c-0.031-0.059-0.061-0.118-0.088-0.18
			c-0.046-0.105-0.088-0.208-0.125-0.316c-0.022-0.743-0.053-1.487-0.09-2.232c-0.04-0.735-0.075-1.473-0.103-2.21
			c-0.015-0.368-0.066-0.73-0.101-1.094c-0.031-0.327-0.042-0.651-0.068-0.978c-0.024-0.325-0.053-0.651-0.07-0.978
			c-0.009-0.16-0.015-0.32-0.031-0.478c0.055-0.035,0.11-0.068,0.167-0.101c0.162-0.09,0.325-0.18,0.48-0.283
			c0.193-0.127,0.377-0.267,0.559-0.41c0.397-0.307,0.772-0.645,1.144-0.978c0.342-0.305,0.66-0.638,1.004-0.941
			c0.34-0.298,0.686-0.59,1.028-0.886c0.202-0.173,0.401-0.346,0.59-0.535c0.184-0.182,0.364-0.366,0.544-0.555
			c0.132-0.138,0.263-0.276,0.386-0.423c0.105-0.125,0.206-0.254,0.318-0.379c0.114-0.131,0.23-0.259,0.338-0.399
			c0.081-0.107,0.151-0.228,0.224-0.344c0.114-0.182,0.23-0.366,0.355-0.542c0.11-0.132,0.23-0.254,0.318-0.403
			c0.088-0.154,0.178-0.311,0.243-0.474c0.051-0.123,0.096-0.245,0.116-0.375c0.024-0.162,0.022-0.316-0.004-0.476
			c-0.031-0.206-0.125-0.399-0.204-0.59c-0.059-0.147-0.121-0.294-0.197-0.432c-0.123-0.219-0.283-0.404-0.436-0.599
			c-0.145-0.182-0.305-0.344-0.476-0.502c-0.158-0.145-0.314-0.298-0.482-0.43c-0.465-0.364-1-0.612-1.557-0.798
			c-0.508-0.173-1.048-0.265-1.579-0.342c-0.561-0.081-1.123-0.145-1.686-0.208c-0.553-0.059-1.107-0.094-1.662-0.103
			c-0.531-0.011-1.061,0.009-1.59,0.024c-0.449,0.013-0.899,0.04-1.348,0.092c-0.463,0.055-0.932,0.075-1.397,0.127
			c-1.098,0.143-2.175,0.45-3.208,0.842c-0.285,0.11-0.566,0.226-0.846,0.349c-0.226,0.096-0.456,0.189-0.673,0.303
			c-0.465,0.243-0.927,0.52-1.324,0.866c-0.329,0.287-0.656,0.579-0.96,0.893c-0.118,0.123-0.237,0.246-0.349,0.375
			c-0.134,0.149-0.237,0.313-0.338,0.484c-0.007,0.013-0.015,0.026-0.024,0.039c-0.149,0.259-0.307,0.507-0.406,0.789
			c-0.099,0.29-0.173,0.588-0.197,0.893c-0.048,0.638,0.024,1.285,0.294,1.87c0.101,0.217,0.228,0.423,0.36,0.623
			c0.134,0.206,0.274,0.406,0.439,0.585c0.116,0.127,0.239,0.25,0.366,0.366c0.23,0.243,0.493,0.45,0.776,0.632
			c0.013,0.009,0.024,0.02,0.037,0.029c0.881,0.645,1.875,1.116,2.879,1.531c0.651,0.267,1.305,0.528,1.969,0.765
			c0.555,0.202,1.12,0.39,1.691,0.546c0.002,0.007,0.004,0.013,0.007,0.022c0.057,0.178,0.125,0.353,0.202,0.524
			c0.151,0.329,0.285,0.667,0.425,1c0.158,0.368,0.338,0.728,0.495,1.098c0.138,0.325,0.281,0.651,0.415,0.98
			c0,0.004,0.002,0.007,0.004,0.011c0.044,0.11,0.085,0.217,0.127,0.329c0.177,0.454,0.362,0.906,0.526,1.366
			c0.156,0.445,0.292,0.899,0.447,1.344c0.028,0.081,0.057,0.16,0.085,0.241c0.005,0.068,0.009,0.138,0.011,0.206
			c0.004,0.114,0.004,0.228-0.002,0.344c-0.017,0.162-0.052,0.32-0.088,0.478c-0.059,0.267-0.138,0.533-0.228,0.791
			c-0.053,0.14-0.114,0.276-0.18,0.41c-0.064,0.114-0.132,0.224-0.204,0.329c-0.325,0.458-0.667,0.903-1.033,1.324l-0.002,0.002
			c-0.007,0.004-0.011,0.011-0.016,0.018c-0.002,0.004-0.007,0.007-0.009,0.011c-0.004,0.004-0.011,0.011-0.015,0.015
			c-0.002,0.002-0.004,0.004-0.007,0.007c-0.002,0.002-0.004,0.005-0.007,0.007c-0.197,0.211-0.408,0.412-0.625,0.607
			c-0.289,0.241-0.594,0.463-0.892,0.689c-0.228,0.175-0.461,0.335-0.697,0.493c-0.305,0.197-0.62,0.373-0.943,0.542
			c-0.302,0.16-0.605,0.329-0.912,0.482c-0.349,0.167-0.697,0.331-1.055,0.478c-0.364,0.149-0.732,0.287-1.096,0.441
			c-0.399,0.167-0.805,0.324-1.202,0.498c-0.399,0.178-0.8,0.357-1.169,0.594c-0.07,0.046-0.138,0.09-0.206,0.138
			c-0.035,0.026-0.07,0.053-0.096,0.083c-0.099,0.075-0.057,0.265,0.085,0.254c0.031,0.009,0.064,0.011,0.096,0.013
			c0.112,0.011,0.221,0.033,0.331,0.035c0.044,0.002,0.086,0.004,0.129,0.004c0.162,0,0.327-0.013,0.487-0.035
			c0.36-0.048,0.717-0.132,1.068-0.224c0.346-0.09,0.691-0.182,1.035-0.281c0.327-0.094,0.647-0.21,0.971-0.316
			c0.357-0.116,0.717-0.221,1.074-0.34c0.292-0.094,0.586-0.182,0.87-0.289c0.257-0.097,0.507-0.208,0.754-0.325
			c0.145-0.07,0.29-0.138,0.434-0.208c0.004-0.002,0.007-0.004,0.011-0.007c-0.048,0.397-0.074,0.798-0.066,1.199
			c0.013,0.498,0.061,0.991,0.114,1.484c0.053,0.491,0.114,0.982,0.206,1.467c0.09,0.465,0.202,0.925,0.318,1.381
			c0.02,0.077,0.037,0.151,0.057,0.226c-0.002-0.004-0.002-0.007-0.004-0.009c0.18,0.724,0.368,1.454,0.636,2.149
			c0.338,0.868,0.746,1.697,1.228,2.495c0.404,0.667,0.871,1.296,1.36,1.901c1.046,1.296,2.184,2.508,3.53,3.499
			c0.704,0.52,1.441,0.967,2.267,1.267c0.848,0.309,1.752,0.467,2.655,0.467c0.007,0,0.013,0,0.02,0
			c0.395-0.002,0.794-0.044,1.184-0.092c0.375-0.044,0.759-0.092,1.127-0.184c0.813-0.204,1.506-0.745,2.166-1.248
			c0.62-0.491,1.079-1.169,1.412-1.883c0.195-0.421,0.316-0.87,0.401-1.324c0.079-0.417,0.142-0.842,0.166-1.265
			c0.044-0.794,0.081-1.603-0.039-2.392c-0.105-0.689-0.221-1.379-0.434-2.044c-0.243-0.757-0.465-1.528-0.851-2.228
			c-0.2-0.364-0.377-0.741-0.581-1.103c-0.145-0.25-0.305-0.491-0.45-0.739c-0.136-0.243-0.27-0.491-0.419-0.728
			c-0.103-0.16-0.208-0.32-0.307-0.485c-0.099-0.18-0.2-0.36-0.322-0.524c-0.118-0.156-0.241-0.3-0.36-0.454
			c-0.114-0.151-0.226-0.307-0.346-0.452c-0.094-0.11-0.188-0.213-0.279-0.324c-0.145-0.195-0.283-0.397-0.43-0.59
			c-0.044-0.057-0.09-0.116-0.134-0.173c-0.059-0.081-0.116-0.162-0.173-0.246c0.14,0.002,0.281,0.004,0.419,0.004
			c0.23,0,0.458-0.004,0.689-0.011c0.66-0.022,1.318-0.046,1.978-0.096c0.66-0.052,1.322-0.103,1.973-0.217
			c0.616-0.107,1.228-0.23,1.84-0.346c0.493-0.094,0.984-0.204,1.48-0.281v0.002c0.002,0,0.002,0,0.002,0c0.002,0,0.002,0,0.002,0
			c0.123,0.033,0.246-0.068,0.235-0.193C241.158,230.469,241.031,230.397,240.919,230.436z M232.874,236.172
			c0.004,0.009,0.009,0.018,0.015,0.026c0.107,0.191,0.217,0.381,0.326,0.572c0.149,0.274,0.274,0.559,0.412,0.84
			c0.151,0.316,0.32,0.623,0.454,0.947c0.147,0.366,0.296,0.728,0.445,1.09c0.204,0.515,0.362,1.061,0.502,1.598
			c0.107,0.458,0.199,0.925,0.263,1.392c0.057,0.509,0.07,1.017,0.072,1.528c-0.007,0.261-0.017,0.52-0.053,0.778
			c-0.05,0.313-0.118,0.625-0.197,0.934c-0.057,0.197-0.123,0.39-0.197,0.581c-0.061,0.134-0.125,0.268-0.195,0.397
			c-0.044,0.07-0.09,0.14-0.138,0.208c-0.024,0.028-0.048,0.057-0.072,0.083c-0.101,0.094-0.204,0.182-0.314,0.268
			c-0.182,0.136-0.368,0.263-0.563,0.379c-0.079,0.04-0.158,0.079-0.239,0.114c-0.052,0.018-0.105,0.033-0.158,0.048
			c-0.044,0.009-0.088,0.018-0.132,0.024c-0.186,0.013-0.37,0.018-0.557,0.015c-0.39-0.011-0.776-0.039-1.162-0.088
			c-0.219-0.035-0.436-0.079-0.653-0.134c-0.364-0.112-0.717-0.239-1.07-0.384c-0.695-0.3-1.388-0.616-2.05-0.984
			c-0.412-0.25-0.807-0.517-1.191-0.807c-0.384-0.303-0.757-0.616-1.112-0.952c-0.044-0.046-0.088-0.09-0.132-0.134
			c-0.278-0.292-0.537-0.596-0.785-0.912c-0.524-0.708-0.991-1.449-1.432-2.21c-0.013-0.022-0.026-0.044-0.04-0.066
			c-0.004-0.013-0.013-0.024-0.02-0.035c-0.005-0.011-0.009-0.02-0.015-0.029c-0.013-0.024-0.026-0.05-0.04-0.075
			c-0.52-0.917-0.971-1.862-1.372-2.835c-0.325-0.829-0.579-1.677-0.8-2.539c-0.222-0.899-0.349-1.805-0.458-2.724
			c0.002,0.007,0.002,0.013,0.005,0.02c-0.002-0.015-0.005-0.031-0.007-0.046c-0.002-0.013-0.004-0.029-0.004-0.042
			c-0.007-0.037-0.011-0.075-0.013-0.112c0,0.007,0,0.013,0,0.02c-0.028-0.303-0.046-0.61-0.085-0.91
			c0.241-0.158,0.471-0.331,0.697-0.513c0.388-0.311,0.765-0.631,1.142-0.956c0.32-0.274,0.596-0.581,0.846-0.917
			c0.132,0.412,0.294,0.811,0.447,1.217c0.105,0.27,0.206,0.539,0.32,0.805c0.107,0.25,0.226,0.493,0.338,0.741
			c0.223,0.482,0.434,0.974,0.673,1.449c0.239,0.487,0.495,0.96,0.763,1.432c0,0.002,0.002,0.004,0.002,0.007
			c0.002,0,0.002,0.002,0.002,0.002c0.004,0.009,0.009,0.015,0.013,0.024c0.007,0.013,0.016,0.026,0.024,0.039
			c0.042,0.077,0.083,0.151,0.127,0.228c0.009,0.015,0.017,0.031,0.026,0.046c0.211,0.368,0.439,0.728,0.684,1.074
			c0.252,0.36,0.507,0.715,0.757,1.077c0.259,0.375,0.526,0.743,0.796,1.109c0.279,0.377,0.553,0.761,0.838,1.134
			c0.441,0.583,0.914,1.14,1.43,1.658c-0.007-0.009-0.013-0.015-0.02-0.024c0.314,0.322,0.643,0.634,0.974,0.938
			c0.009,0.011,0.02,0.022,0.029,0.033c0.072,0.103,0.147,0.204,0.213,0.311c0.028,0.044,0.068,0.061,0.11,0.061
			c0.097,0,0.195-0.107,0.125-0.217c-0.068-0.107-0.145-0.215-0.219-0.32c-0.092-0.18-0.173-0.366-0.263-0.548
			c-0.096-0.193-0.195-0.384-0.294-0.575c-0.199-0.377-0.408-0.754-0.62-1.127v-0.002v-0.002c-0.004-0.004-0.007-0.007-0.007-0.011
			c-0.007-0.011-0.013-0.024-0.02-0.035c-0.002-0.002-0.005-0.005-0.005-0.007c0-0.002-0.002-0.002-0.002-0.004
			c-0.002-0.002-0.004-0.007-0.007-0.009c-0.325-0.577-0.688-1.127-1.026-1.695c-0.324-0.546-0.642-1.096-0.96-1.645
			c-0.002-0.005-0.004-0.009-0.009-0.013c-0.004-0.009-0.009-0.018-0.013-0.026c-0.002-0.007-0.007-0.011-0.009-0.018
			c-0.002-0.002-0.004-0.007-0.007-0.011c-0.004-0.007-0.009-0.013-0.013-0.022c-0.002-0.002-0.002-0.004-0.004-0.007
			c0-0.002-0.002-0.005-0.004-0.007v-0.001v-0.002c-0.243-0.436-0.45-0.888-0.68-1.329c-0.235-0.447-0.474-0.895-0.706-1.342
			c-0.463-0.884-0.93-1.767-1.307-2.693c-0.002-0.004-0.002-0.007-0.004-0.011c-0.004-0.011-0.011-0.02-0.013-0.031
			c-0.002,0-0.002,0-0.002-0.002v-0.001c0,0,0,0.001,0.001,0.001c0,0,0-0.001-0.001-0.001v-0.001
			c-0.002-0.007-0.004-0.011-0.007-0.018c0,0.002,0,0.002,0,0.004c-0.007-0.02-0.013-0.037-0.02-0.057
			c-0.164-0.423-0.324-0.849-0.458-1.281c-0.066-0.215-0.134-0.43-0.197-0.647c0.25,0.193,0.511,0.364,0.789,0.522
			c0.002,0.002,0.006,0.002,0.009,0.004c0.009,0.004,0.016,0.009,0.022,0.013c0.294,0.164,0.592,0.322,0.895,0.474
			c1.134,0.555,2.331,0.965,3.574,1.195c0.142,0.026,0.287,0.05,0.432,0.068c0.05,0.2,0.134,0.392,0.226,0.568
			c0.156,0.298,0.329,0.581,0.495,0.87c0.105,0.189,0.204,0.379,0.316,0.559c0.079,0.129,0.165,0.257,0.241,0.386
			c0.068,0.125,0.125,0.254,0.195,0.377c0.081,0.149,0.169,0.296,0.254,0.443c0.134,0.241,0.248,0.491,0.401,0.724
			C232.593,235.716,232.738,235.938,232.874,236.172z"/>
		<path d="M198.475,209.904c-0.368-0.171-0.761-0.237-1.16-0.274c-0.178-0.018-0.355-0.022-0.535-0.022
			c-0.276,0-0.559-0.009-0.833,0.035c-0.653,0.099-1.294,0.268-1.879,0.579c-0.235,0.125-0.469,0.274-0.682,0.434
			c-0.199,0.151-0.373,0.307-0.539,0.491c-0.033,0.037-0.063,0.074-0.09,0.114c-0.158,0.11-0.307,0.232-0.45,0.36
			c-0.276,0.254-0.57,0.522-0.752,0.853c-0.237,0.428-0.406,0.842-0.384,1.349c0.033,0.713,0.539,1.258,1.101,1.629
			c0.14,0.094,0.287,0.171,0.439,0.234c0.134,0.063,0.272,0.114,0.417,0.145c0.397,0.107,0.811,0.147,1.221,0.147
			c0.044,0,0.086,0,0.129,0c0.553-0.013,1.109-0.064,1.662-0.127c0.364-0.04,0.708-0.107,1.057-0.219
			c0.184-0.057,0.364-0.125,0.544-0.195c0.154-0.059,0.311-0.114,0.463-0.18c0.331-0.14,0.618-0.303,0.888-0.539
			c0.189-0.165,0.34-0.362,0.474-0.566c0.184-0.276,0.338-0.612,0.434-0.927c0.197-0.653,0.241-1.432-0.127-2.039
			C199.532,210.621,199.076,210.184,198.475,209.904z"/>
		<path d="M264.615,203.236c-0.86-0.563-1.929-0.721-2.938-0.66c-0.373,0.024-0.739,0.099-1.105,0.169
			c-0.272,0.05-0.546,0.103-0.816,0.165c-0.149,0.035-0.296,0.072-0.441,0.116c-0.217,0.042-0.436,0.092-0.651,0.151
			c-0.473,0.129-0.912,0.276-1.357,0.48c-0.408,0.186-0.803,0.386-1.131,0.7c-0.542,0.511-0.813,1.234-0.864,1.962
			c-0.059,0.829,0.329,1.66,0.971,2.175c0.443,0.357,0.928,0.61,1.458,0.805c0.484,0.178,0.993,0.305,1.506,0.344
			c0.088,0.007,0.173,0.009,0.259,0.009c0.384,0,0.761-0.057,1.144-0.083c0.434-0.031,0.857-0.066,1.287-0.149
			c0.379-0.074,0.759-0.16,1.123-0.294c0.325-0.116,0.638-0.261,0.952-0.408c0.278-0.13,0.555-0.265,0.796-0.458
			c0.43-0.342,0.789-0.748,1.009-1.259c0.3-0.702,0.399-1.478,0.107-2.204C265.661,204.144,265.198,203.62,264.615,203.236z"/>
		<path d="M285.182,201.282c-0.051-0.039-0.099-0.077-0.149-0.114c-0.947-0.734-1.872-1.511-2.772-2.305
			c-0.892-0.787-1.743-1.616-2.59-2.449c-0.526-0.526-1.039-1.07-1.497-1.658c-0.364-0.48-0.717-0.974-1.046-1.478
			c-0.301-0.456-0.579-0.925-0.86-1.392c-0.002-0.004-0.004-0.009-0.009-0.013c-0.002-0.007-0.007-0.015-0.011-0.022
			c-0.004-0.004-0.007-0.009-0.009-0.013c-0.007-0.009-0.011-0.015-0.016-0.024c-0.254-0.439-0.478-0.89-0.728-1.329
			c-0.219-0.386-0.441-0.77-0.669-1.153c-0.015-0.026-0.028-0.05-0.044-0.077c0.324,0.149,0.702,0.243,1.02,0.097
			c0.336-0.156,0.425-0.537,0.329-0.864c-0.055-0.186-0.193-0.335-0.316-0.482c-0.298-0.351-0.585-0.708-0.899-1.044
			c-0.198-0.211-0.399-0.417-0.605-0.618c-0.215-0.21-0.432-0.423-0.669-0.609c-0.54-0.423-1.169-0.721-1.783-1.02
			c-1.219-0.592-2.535-1.011-3.885-1.142c-1.346-0.134-2.706-0.103-4.048,0.057c-0.618,0.072-1.237,0.149-1.842,0.296
			c-0.311,0.075-0.62,0.156-0.923,0.263c-0.303,0.107-0.603,0.226-0.901,0.346c-0.917,0.362-1.789,0.811-2.636,1.311
			c-0.024-0.002-0.053,0.002-0.079,0.015c-0.057,0.009-0.112,0.031-0.16,0.059c-0.101,0.057-0.199,0.118-0.3,0.178
			c-0.344,0.2-0.691,0.384-1.004,0.625c-0.37,0.285-0.721,0.596-1.072,0.905c-0.075,0.066-0.147,0.132-0.222,0.195
			c-0.125,0.107-0.248,0.215-0.366,0.327c-0.458,0.41-0.91,0.824-1.338,1.265c-0.443,0.454-0.879,0.923-1.278,1.421
			c-0.447,0.559-0.866,1.14-1.283,1.723c-0.765,1.066-1.513,2.142-2.166,3.28c-0.654,1.138-1.217,2.329-1.726,3.537
			c-0.272,0.64-0.52,1.291-0.743,1.949c-0.224,0.654-0.445,1.309-0.623,1.975c-0.005,0.011-0.007,0.02-0.009,0.031
			c-0.309,1.156-0.579,2.324-0.752,3.511c-0.208,1.41-0.329,2.831-0.366,4.256c-0.037,1.377,0.009,2.76,0.199,4.126
			c0.237,1.627,0.647,3.232,1.221,4.771c0.125,0.34,0.274,0.669,0.428,0.998c0.116,0.25,0.228,0.5,0.362,0.741
			c0.226,0.406,0.489,0.814,0.894,1.064c0.384,0.239,0.827,0.215,1.202-0.022c0.239-0.149,0.417-0.406,0.491-0.675
			c0.02-0.07,0.035-0.142,0.053-0.213c0.123,0.226,0.243,0.454,0.373,0.678c0.004,0.004,0.007,0.011,0.009,0.015
			c0.008,0.013,0.017,0.029,0.024,0.042c-0.002-0.004-0.002-0.007-0.004-0.011c0.026,0.046,0.053,0.09,0.079,0.134
			c0.204,0.346,0.421,0.686,0.632,1.031c0.246,0.404,0.502,0.796,0.792,1.169c1.039,1.329,2.267,2.506,3.609,3.532
			c0.004,0.005,0.009,0.009,0.015,0.013c0.002,0.002,0.002,0.002,0.005,0.004c0.002,0.002,0.007,0.004,0.009,0.007
			c0.011,0.009,0.022,0.015,0.033,0.024c0.007,0.004,0.015,0.011,0.022,0.017c1.386,1.061,2.877,1.973,4.431,2.765
			c1.23,0.627,2.5,1.153,3.793,1.631c1.27,0.469,2.561,0.875,3.868,1.226c0.004,0.002,0.011,0.005,0.016,0.005
			c1.046,0.278,2.094,0.544,3.159,0.737c1.425,0.263,2.87,0.331,4.317,0.346c0.671,0.009,1.342,0.029,2.013,0.042
			c0.14,0.002,0.283,0.004,0.423,0.004c0.568,0,1.132-0.022,1.697-0.063c0.645-0.048,1.287-0.114,1.925-0.232
			c0.649-0.123,1.298-0.268,1.936-0.438c0.717-0.189,1.416-0.423,2.103-0.708c0.64-0.268,1.245-0.587,1.842-0.941
			c0.515-0.305,1.026-0.612,1.519-0.947c0.557-0.381,1.103-0.792,1.634-1.21c0.557-0.436,1.07-0.925,1.585-1.408
			c0.502-0.471,0.956-0.98,1.395-1.511c0.456-0.55,0.875-1.12,1.232-1.741c0.02-0.037,0.042-0.075,0.064-0.112
			c0.23-0.401,0.443-0.809,0.66-1.217c0.309-0.585,0.59-1.182,0.888-1.772c0.147-0.292,0.305-0.579,0.441-0.875
			c0.145-0.314,0.274-0.632,0.388-0.956c0.208-0.581,0.417-1.16,0.594-1.752c0.094-0.313,0.193-0.625,0.281-0.938
			c0.086-0.311,0.151-0.616,0.197-0.934c0.002-0.009,0.002-0.02,0.004-0.028c0.029-0.235,0.055-0.467,0.083-0.704
			c0.002-0.015,0.004-0.031,0.007-0.046c0.037-0.296,0.079-0.592,0.101-0.89c0.022-0.311,0.024-0.625,0.035-0.939
			c0.011-0.283,0.022-0.566,0.024-0.846c0.002-0.259-0.024-0.515-0.026-0.774c0.002-0.447,0.02-0.893,0.009-1.34
			c-0.011-0.406-0.046-0.798-0.169-1.186c-0.149-0.467-0.395-0.908-0.741-1.256c-0.434-0.436-0.908-0.822-1.395-1.197
			c-1.041-0.803-2.105-1.574-3.166-2.346c-1.101-0.8-2.234-1.557-3.339-2.351C287.331,202.861,286.243,202.092,285.182,201.282z
			 M266.687,231.92c0.003,0.001,0.006,0.001,0.008,0.002c0.001,0,0.002,0.001,0.004,0.001c-0.001,0-0.003,0-0.003,0
			C266.693,231.922,266.69,231.921,266.687,231.92z M293.295,209.145c0.504,0.351,1.011,0.693,1.5,1.068
			c0.215,0.165,0.43,0.327,0.625,0.511c0.044,0.046,0.086,0.096,0.127,0.149c0.041,0.059,0.083,0.118,0.123,0.18
			c0.024,0.044,0.048,0.088,0.07,0.132c0.011,0.028,0.022,0.059,0.033,0.088c0.042,0.173,0.068,0.349,0.094,0.526
			c0.051,0.362,0.055,0.73,0.064,1.096c0,0.004,0,0.011,0,0.015c0,0.018,0,0.035,0.002,0.053c0,0.002,0,0.004,0,0.007
			c-0.002,0.224-0.018,0.443-0.044,0.662c-0.035,0.246-0.068,0.489-0.097,0.732c-0.009,0.057-0.017,0.114-0.024,0.171
			c-0.05,0.366-0.127,0.726-0.204,1.088c-0.064,0.307-0.125,0.612-0.202,0.914c-0.079,0.267-0.173,0.528-0.257,0.794
			c-0.094,0.309-0.173,0.621-0.265,0.932c-0.184,0.636-0.414,1.263-0.66,1.877c-0.002,0.002-0.002,0.002-0.002,0.004
			c-0.239,0.557-0.489,1.114-0.737,1.669c-0.254,0.574-0.546,1.131-0.859,1.675c-0.029,0.05-0.057,0.099-0.086,0.147
			c-0.013,0.026-0.029,0.05-0.044,0.075c-0.296,0.495-0.61,0.978-0.914,1.467c-0.292,0.469-0.577,0.936-0.901,1.379
			c-0.349,0.445-0.717,0.873-1.114,1.278c-0.484,0.476-0.995,0.917-1.526,1.335c-0.004,0.004-0.011,0.009-0.016,0.011
			c-0.011,0.007-0.02,0.015-0.028,0.022c0,0.002,0,0.002-0.002,0.002c-0.013,0.009-0.022,0.018-0.035,0.026v0.002
			c-0.592,0.45-1.2,0.886-1.831,1.274c-0.515,0.292-1.052,0.54-1.598,0.774c-0.016,0.007-0.029,0.013-0.044,0.02
			c-0.004,0.002-0.011,0.004-0.017,0.007c-0.766,0.322-1.539,0.612-2.333,0.846c-1.022,0.281-2.07,0.489-3.12,0.643
			c-0.529,0.07-1.057,0.116-1.585,0.151c-0.612,0.04-1.223,0.083-1.835,0.094c-0.873-0.005-1.741-0.07-2.609-0.14
			c-0.882-0.068-1.756-0.147-2.633-0.257c-0.645-0.086-1.292-0.184-1.93-0.32c-0.566-0.116-1.123-0.255-1.68-0.401
			c-0.001,0-0.001,0-0.001,0c-0.004-0.001-0.009-0.003-0.013-0.004c-0.003-0.001-0.006-0.002-0.009-0.003h-0.002
			c-0.004,0-0.009-0.002-0.013-0.004c-0.004,0-0.011-0.002-0.015-0.002h-0.002c-0.009-0.002-0.017-0.007-0.026-0.009h-0.002
			c-1.313-0.357-2.6-0.772-3.861-1.289c-1.574-0.664-3.114-1.397-4.594-2.245c-0.009-0.007-0.02-0.011-0.029-0.018
			c-0.009-0.007-0.02-0.011-0.028-0.015c-0.004-0.002-0.009-0.007-0.013-0.009h-0.002c-0.007-0.005-0.015-0.009-0.022-0.013
			c0.004,0.002,0.011,0.004,0.017,0.009c-0.967-0.574-1.899-1.21-2.791-1.892c-0.487-0.377-0.969-0.757-1.436-1.156
			c-0.452-0.382-0.901-0.767-1.324-1.18c-0.184-0.189-0.364-0.384-0.548-0.574c-0.195-0.197-0.394-0.392-0.585-0.596
			c-0.325-0.349-0.618-0.73-0.912-1.103c0.009,0.011,0.017,0.02,0.028,0.031c-0.201-0.259-0.408-0.517-0.587-0.791
			c-0.119-0.18-0.23-0.364-0.342-0.548c-0.072-0.136-0.134-0.285-0.226-0.406c-0.092-0.116-0.18-0.228-0.303-0.314
			c-0.167-0.116-0.397-0.167-0.594-0.118c-0.228,0.055-0.441,0.2-0.542,0.417c-0.055,0.123-0.09,0.254-0.12,0.384
			c-0.024,0.105-0.042,0.211-0.066,0.316c-0.042-0.083-0.083-0.167-0.123-0.25c-0.002-0.009-0.007-0.015-0.009-0.022
			c-0.094-0.243-0.169-0.491-0.25-0.741c-0.07-0.217-0.14-0.436-0.204-0.658c-0.002-0.002-0.002-0.004-0.002-0.007
			c-0.002-0.004-0.002-0.009-0.004-0.013c0,0,0,0,0-0.002c-0.219-0.796-0.388-1.612-0.511-2.43
			c-0.061-0.443-0.107-0.888-0.162-1.333c-0.05-0.425-0.105-0.853-0.14-1.283c-0.035-0.428-0.05-0.859-0.07-1.289
			c-0.024-0.465-0.044-0.934-0.048-1.401c-0.007-1.36,0.09-2.723,0.257-4.076c0-0.002,0-0.007,0.002-0.011c0-0.002,0-0.007,0-0.009
			v-0.002c0.002-0.015,0.004-0.029,0.007-0.046c0.002-0.024,0.007-0.048,0.009-0.072c0.002-0.018,0.004-0.037,0.009-0.055
			c0.116-0.816,0.241-1.629,0.423-2.434c0.175-0.781,0.373-1.557,0.579-2.326c0.362-1.335,0.807-2.658,1.331-3.938
			c0.542-1.278,1.169-2.515,1.862-3.719c0.382-0.64,0.818-1.241,1.258-1.846c0.476-0.654,0.95-1.309,1.441-1.954
			c0,0,0,0,0.002-0.002v-0.002c0.193-0.248,0.386-0.493,0.583-0.737c0.044-0.046,0.088-0.09,0.134-0.136
			c0.011-0.013,0.024-0.026,0.035-0.037c0.011-0.011,0.022-0.022,0.035-0.035c0.274-0.27,0.55-0.537,0.846-0.781
			c0.25-0.204,0.502-0.408,0.756-0.605c0.55-0.425,1.136-0.798,1.732-1.153c0.623-0.362,1.261-0.704,1.921-0.993
			c0.04-0.018,0.079-0.033,0.116-0.05c0.535-0.221,1.079-0.427,1.634-0.592c0.566-0.151,1.145-0.254,1.721-0.342
			c0.794-0.112,1.596-0.182,2.403-0.189c0.693,0.004,1.388,0.046,2.076,0.125c0.007,0.002,0.013,0.002,0.02,0.002
			c0.009,0,0.017,0.002,0.026,0.004c0.007,0,0.013,0.002,0.02,0.002c0.487,0.064,0.971,0.127,1.452,0.217
			c0.419,0.079,0.833,0.178,1.243,0.281c0.024,0.007,0.046,0.013,0.07,0.02c0.614,0.167,1.215,0.377,1.802,0.616
			c0.211,0.092,0.419,0.189,0.619,0.3c0.254,0.151,0.502,0.314,0.734,0.491c0.053,0.042,0.105,0.085,0.158,0.129
			c-0.219,0.079-0.414,0.219-0.513,0.436c-0.083,0.184-0.118,0.388-0.103,0.588c0.031,0.353,0.204,0.656,0.349,0.971
			c0.007,0.02,0.015,0.04,0.022,0.059c0.02,0.083,0.035,0.173,0.066,0.25c0.042,0.105,0.088,0.206,0.132,0.309
			c0.25,0.594,0.478,1.197,0.767,1.772c0.311,0.618,0.62,1.241,0.969,1.842c0.296,0.502,0.605,1,0.926,1.484
			c0.178,0.27,0.379,0.52,0.574,0.774c0.228,0.298,0.452,0.599,0.686,0.89c0.467,0.577,0.936,1.151,1.467,1.673
			c0.436,0.432,0.893,0.844,1.346,1.257c0.487,0.441,0.971,0.884,1.467,1.311c0.522,0.452,1.059,0.884,1.598,1.311
			c0.533,0.423,1.066,0.844,1.612,1.245c1.108,0.816,2.265,1.555,3.416,2.304c1.116,0.728,2.254,1.425,3.366,2.162
			C292.216,208.406,292.758,208.77,293.295,209.145z"/>
	</g>
</g>
</svg>
